<?xml version="1.0" encoding="UTF-8"?>
<svg xmlns="http://www.w3.org/2000/svg" version="1.1" viewBox="0 0 320 320">
  <!-- Generator: Adobe Illustrator 30.3.0, SVG Export Plug-In . SVG Version: 2.1.3 Build 182)  -->
  <g id="Hg">
    <circle cx="160" cy="160" r="154.3" fill="#e09cff"/>
  </g>
  <g id="Seite_Lernraum">
    <g>
      <polygon points="203.5 203.6 166.5 223.1 55.6 223.1 55.6 117.7 93.7 98.1 203.5 98.1 203.5 203.6" fill="#fff" stroke="#a35bc9" stroke-miterlimit="10" stroke-width="2"/>
      <line x1="55.6" y1="117.7" x2="93.7" y2="98.1" fill="none" stroke="#a35bc9" stroke-miterlimit="10" stroke-width="2"/>
      <line x1="166.5" y1="117.7" x2="204.1" y2="98.3" fill="none" stroke="#a35bc9" stroke-miterlimit="10" stroke-width="2"/>
      <line x1="203.5" y1="203.6" x2="166.5" y2="223.1" fill="none" stroke="#a35bc9" stroke-miterlimit="10" stroke-width="2"/>
      <polyline points="55.6 223.1 93.7 203.6 203.5 203.6" fill="none" stroke="#a35bc9" stroke-miterlimit="10" stroke-width="2"/>
      <line x1="93.7" y1="98.1" x2="93.7" y2="203.6" fill="none" stroke="#a35bc9" stroke-miterlimit="10" stroke-width="2"/>
      <line x1="55.6" y1="117.7" x2="166.5" y2="117.7" fill="none" stroke="#a35bc9" stroke-miterlimit="10" stroke-width="2"/>
      <g>
        <path d="M161.2,184.7s-6.6,9-36.4,9-36.4-9-36.4-9v-27.7l57.3,7.2,15.4-11.7v32.2Z" fill="#e09cff" stroke="#a35bc9" stroke-miterlimit="10" stroke-width="2"/>
        <polygon points="180 137.8 146.2 164.2 71.5 154.9 105.9 129.4 180 137.8" fill="#e09cff" stroke="#a35bc9" stroke-miterlimit="10" stroke-width="2"/>
        <g>
          <line x1="76.7" y1="155.6" x2="76.6" y2="181.9" fill="none" stroke="#a35bc9" stroke-miterlimit="10" stroke-width="2"/>
          <line x1="76.6" y1="181.9" x2="70.4" y2="202.1" fill="none" stroke="#a35bc9" stroke-miterlimit="10" stroke-width="2"/>
          <line x1="76.6" y1="181.9" x2="77.3" y2="204.1" fill="none" stroke="#a35bc9" stroke-miterlimit="10" stroke-width="2"/>
          <line x1="76.6" y1="181.9" x2="83.6" y2="202.1" fill="none" stroke="#a35bc9" stroke-miterlimit="10" stroke-width="2"/>
        </g>
      </g>
      <line x1="166.5" y1="117.7" x2="166.5" y2="223.1" fill="none" stroke="#a35bc9" stroke-miterlimit="10" stroke-width="2"/>
    </g>
  </g>
  <g id="Seite_Lernen__x2B__Planen__x2B__Schreiben">
    <g>
      <g>
        <rect x="228.7" y="104.7" width="47.5" height="74.8" transform="translate(75.2 371.3) rotate(-81.7)" fill="#fff" stroke="#a35bc9" stroke-miterlimit="10" stroke-width="2"/>
        <path d="M279.9,165.9s-6.3-3.1-15.7-4.6c-10.9-1.7-15.1-.4-15.1-.4,0,0-4.7-2.1-15.1-3.6s-14.9-.3-14.9-.3l6.7-45.8,60.9,8.9-6.7,45.8Z" fill="#fff" stroke="#a35bc9" stroke-miterlimit="10" stroke-width="2"/>
        <line x1="248.8" y1="160.8" x2="255.5" y2="115.5" fill="none" stroke="#a35bc9" stroke-miterlimit="10" stroke-width="2"/>
      </g>
      <line x1="227.2" y1="144.1" x2="244.9" y2="146.7" fill="none" stroke="#a35bc9" stroke-linecap="round" stroke-miterlimit="10" stroke-width="2"/>
      <line x1="228.5" y1="135.3" x2="246.2" y2="137.9" fill="none" stroke="#a35bc9" stroke-linecap="round" stroke-miterlimit="10" stroke-width="2"/>
      <line x1="229.8" y1="126.2" x2="247.5" y2="128.8" fill="none" stroke="#a35bc9" stroke-linecap="round" stroke-miterlimit="10" stroke-width="2"/>
      <line x1="257.6" y1="148.5" x2="275.3" y2="151.1" fill="none" stroke="#a35bc9" stroke-linecap="round" stroke-miterlimit="10" stroke-width="2"/>
      <line x1="258.9" y1="139.7" x2="276.6" y2="142.3" fill="none" stroke="#a35bc9" stroke-linecap="round" stroke-miterlimit="10" stroke-width="2"/>
      <line x1="260.2" y1="130.6" x2="277.9" y2="133.2" fill="none" stroke="#a35bc9" stroke-linecap="round" stroke-miterlimit="10" stroke-width="2"/>
    </g>
    <g>
      <rect x="157.1" y="42.7" width="53.3" height="67" transform="translate(8.9 -18.6) rotate(6)" fill="#fff" stroke="#a35bc9" stroke-miterlimit="10" stroke-width="2"/>
      <path d="M168.1,57.6c.9,1.4,1.9,2.7,2.8,4.1.1.2.2.3.4.4.3,0,.6-.1.8-.3,2.5-2.2,4.9-4.5,7-7" fill="none" stroke="#a35bc9" stroke-miterlimit="10" stroke-width="2"/>
      <path d="M164.4,93c.9,1.4,1.9,2.7,2.8,4.1.1.2.2.3.4.4.3,0,.6-.1.8-.3,2.5-2.2,4.9-4.5,7-7" fill="none" stroke="#a35bc9" stroke-miterlimit="10" stroke-width="2"/>
      <path d="M166.3,75.3c.9,1.4,1.9,2.7,2.8,4.1.1.2.2.3.4.4.3,0,.6-.1.8-.3,2.5-2.2,4.9-4.5,7-7" fill="none" stroke="#a35bc9" stroke-miterlimit="10" stroke-width="2"/>
      <line x1="185.8" y1="60.4" x2="202" y2="62.1" fill="none" stroke="#a35bc9" stroke-linecap="round" stroke-miterlimit="10" stroke-width="2"/>
      <line x1="183.9" y1="78.2" x2="200.1" y2="79.9" fill="none" stroke="#a35bc9" stroke-linecap="round" stroke-miterlimit="10" stroke-width="2"/>
      <line x1="182" y1="96.2" x2="198.3" y2="97.9" fill="none" stroke="#a35bc9" stroke-linecap="round" stroke-miterlimit="10" stroke-width="2"/>
      <path d="M201.9,38.6l-7.3-.8c.4-3.8-2.3-7.1-6.1-7.5-3.8-.4-7.1,2.3-7.5,6.1l-7.3-.8c-1.4-.1-2.7.9-2.8,2.3l-.4,4.3c-.1,1.4.9,2.7,2.3,2.8l28.2,2.9c1.4.1,2.7-.9,2.8-2.3l.4-4.3c.1-1.4-.9-2.7-2.3-2.8ZM187.5,39.9c-1.4-.1-2.4-1.4-2.3-2.8.1-1.4,1.4-2.4,2.8-2.3s2.4,1.4,2.3,2.8-1.4,2.4-2.8,2.3Z" fill="#fff" stroke="#a35bc9" stroke-linecap="round" stroke-miterlimit="10" stroke-width="2"/>
    </g>
    <g>
      <polygon points="234.4 174.9 234.4 240.7 247.2 267 258.8 240.7 258.8 174.9 234.4 174.9" fill="#fff" stroke="#a35bc9" stroke-miterlimit="10" stroke-width="2"/>
      <line x1="234.5" y1="240.1" x2="258.9" y2="240.1" fill="none" stroke="#a35bc9" stroke-miterlimit="10" stroke-width="2"/>
      <line x1="247.3" y1="175.2" x2="247.2" y2="239.6" fill="none" stroke="#a35bc9" stroke-miterlimit="10" stroke-width="2"/>
    </g>
  </g>
</svg>