<?xml version="1.0" encoding="UTF-8"?>
<svg xmlns="http://www.w3.org/2000/svg" version="1.1" viewBox="0 0 320 320">
  <!-- Generator: Adobe Illustrator 30.3.0, SVG Export Plug-In . SVG Version: 2.1.3 Build 182)  -->
  <g id="Hg">
    <circle cx="160" cy="160" r="154.3" fill="#e09cff"/>
  </g>
  <g id="Seite_Lernveranstaltung">
    <g>
      <ellipse cx="125.4" cy="102.4" rx="19.6" ry="19.8" fill="#fff" stroke="#a35bc9" stroke-miterlimit="10" stroke-width="2"/>
      <path d="M125.4,122.6c-19.1,0-34.6,19-34.6,42.3h69.1c0-23.4-15.5-42.3-34.6-42.3Z" fill="#fff" stroke="#a35bc9" stroke-miterlimit="10" stroke-width="2"/>
      <rect x="37.4" y="155.8" width="181.5" height="71.3" fill="#fff" stroke="#a35bc9" stroke-miterlimit="10" stroke-width="2"/>
    </g>
  </g>
  <g id="Seite_Lernen">
    <g>
      <g>
        <rect x="243" y="118.2" width="48.1" height="75.8" transform="translate(73.9 397.7) rotate(-81.7)" fill="#fff" stroke="#a35bc9" stroke-miterlimit="10" stroke-width="2.1"/>
        <path d="M294.8,180.2s-6.3-3.2-15.9-4.7c-11.1-1.7-15.3-.4-15.3-.4,0,0-4.8-2.1-15.3-3.7-10.2-1.5-15.1-.3-15.1-.3l6.8-46.4,61.6,9-6.8,46.4Z" fill="#fff" stroke="#a35bc9" stroke-miterlimit="10" stroke-width="2.1"/>
        <line x1="263.4" y1="175.1" x2="270.1" y2="129.1" fill="none" stroke="#a35bc9" stroke-miterlimit="10" stroke-width="2.1"/>
      </g>
      <line x1="241.5" y1="158.1" x2="259.4" y2="160.7" fill="none" stroke="#a35bc9" stroke-linecap="round" stroke-miterlimit="10" stroke-width="2.1"/>
      <line x1="242.8" y1="149.1" x2="260.7" y2="151.8" fill="none" stroke="#a35bc9" stroke-linecap="round" stroke-miterlimit="10" stroke-width="2.1"/>
      <line x1="244.1" y1="140" x2="262.1" y2="142.6" fill="none" stroke="#a35bc9" stroke-linecap="round" stroke-miterlimit="10" stroke-width="2.1"/>
      <line x1="272.3" y1="162.6" x2="290.2" y2="165.2" fill="none" stroke="#a35bc9" stroke-linecap="round" stroke-miterlimit="10" stroke-width="2.1"/>
      <line x1="273.6" y1="153.6" x2="291.5" y2="156.3" fill="none" stroke="#a35bc9" stroke-linecap="round" stroke-miterlimit="10" stroke-width="2.1"/>
      <line x1="274.9" y1="144.5" x2="292.8" y2="147.1" fill="none" stroke="#a35bc9" stroke-linecap="round" stroke-miterlimit="10" stroke-width="2.1"/>
    </g>
  </g>
</svg>