<?xml version="1.0" encoding="UTF-8"?>
<svg xmlns="http://www.w3.org/2000/svg" version="1.1" viewBox="0 0 320 320">
  <!-- Generator: Adobe Illustrator 30.2.1, SVG Export Plug-In . SVG Version: 2.1.1 Build 1)  -->
  <g id="Hg">
    <circle cx="160" cy="160" r="154.3" fill="#e09cff"/>
  </g>
  <g id="Lernen">
    <g>
      <g>
        <rect x="76.7" y="110.9" width="169.2" height="107.5" fill="#fff" stroke="#a35bc9" stroke-miterlimit="10" stroke-width="2.1"/>
        <path d="M230.5,208.9s-15-5-36.7-5.1c-25-.2-34,4-34,4,0,0-11.2-3.1-35.1-3.1s-33.4,4.3-33.4,4.3v-104.7h139.1s0,104.7,0,104.7Z" fill="#fff" stroke="#a35bc9" stroke-miterlimit="10" stroke-width="2.1"/>
        <line x1="159.4" y1="207.7" x2="159.4" y2="104" fill="none" stroke="#a35bc9" stroke-miterlimit="10" stroke-width="2.1"/>
      </g>
      <line x1="105.5" y1="177.3" x2="145.9" y2="177.3" fill="none" stroke="#a35bc9" stroke-linecap="round" stroke-miterlimit="10" stroke-width="2.1"/>
      <line x1="105.5" y1="157.1" x2="145.9" y2="157.1" fill="none" stroke="#a35bc9" stroke-linecap="round" stroke-miterlimit="10" stroke-width="2.1"/>
      <line x1="105.5" y1="136.4" x2="145.9" y2="136.4" fill="none" stroke="#a35bc9" stroke-linecap="round" stroke-miterlimit="10" stroke-width="2.1"/>
      <line x1="174.9" y1="177.3" x2="215.4" y2="177.3" fill="none" stroke="#a35bc9" stroke-linecap="round" stroke-miterlimit="10" stroke-width="2.1"/>
      <line x1="174.9" y1="157.1" x2="215.4" y2="157.1" fill="none" stroke="#a35bc9" stroke-linecap="round" stroke-miterlimit="10" stroke-width="2.1"/>
      <line x1="174.9" y1="136.4" x2="215.4" y2="136.4" fill="none" stroke="#a35bc9" stroke-linecap="round" stroke-miterlimit="10" stroke-width="2.1"/>
    </g>
  </g>
</svg>