<?xml version="1.0" encoding="UTF-8"?>
<svg xmlns="http://www.w3.org/2000/svg" version="1.1" viewBox="0 0 320 320">
  <!-- Generator: Adobe Illustrator 30.2.1, SVG Export Plug-In . SVG Version: 2.1.1 Build 1)  -->
  <g id="Hg">
    <circle cx="160" cy="160" r="154.3" fill="#e09cff"/>
  </g>
  <g id="Planen">
    <g>
      <rect x="103.8" y="96.7" width="112" height="140.8" transform="translate(18.2 -15.7) rotate(6)" fill="#fff" stroke="#a35bc9" stroke-miterlimit="10" stroke-width="2"/>
      <path d="M127,127.9c2,2.9,3.9,5.7,5.9,8.6.2.3.5.7.9.8.6.2,1.2-.2,1.7-.7,5.3-4.6,10.2-9.5,14.8-14.8" fill="none" stroke="#a35bc9" stroke-miterlimit="10" stroke-width="2"/>
      <path d="M119.3,202.4c2,2.9,3.9,5.7,5.9,8.6.2.3.5.7.9.8.6.2,1.2-.2,1.7-.7,5.3-4.6,10.2-9.5,14.8-14.8" fill="none" stroke="#a35bc9" stroke-miterlimit="10" stroke-width="2"/>
      <path d="M123.2,165.2c2,2.9,3.9,5.7,5.9,8.6.2.3.5.7.9.8.6.2,1.2-.2,1.7-.7,5.3-4.6,10.2-9.5,14.8-14.8" fill="none" stroke="#a35bc9" stroke-miterlimit="10" stroke-width="2"/>
      <line x1="164.1" y1="134" x2="198.2" y2="137.5" fill="none" stroke="#a35bc9" stroke-linecap="round" stroke-miterlimit="10" stroke-width="2"/>
      <line x1="160.2" y1="171.2" x2="194.3" y2="174.8" fill="none" stroke="#a35bc9" stroke-linecap="round" stroke-miterlimit="10" stroke-width="2"/>
      <line x1="156.3" y1="209.1" x2="190.4" y2="212.7" fill="none" stroke="#a35bc9" stroke-linecap="round" stroke-miterlimit="10" stroke-width="2"/>
      <path d="M198,88.2l-15.3-1.6c.8-7.9-4.9-15-12.9-15.9-7.9-.8-15,4.9-15.9,12.9l-15.3-1.6c-2.9-.3-5.6,1.9-5.9,4.8l-.9,9.1c-.3,2.9,1.9,5.6,4.8,5.9l59.3,6.2c2.9.3,5.6-1.9,5.9-4.8l.9-9.1c.3-2.9-1.9-5.6-4.8-5.9ZM167.7,90.7c-2.9-.3-5.1-2.9-4.8-5.9.3-2.9,2.9-5.1,5.9-4.8,2.9.3,5.1,2.9,4.8,5.9-.3,2.9-2.9,5.1-5.9,4.8Z" fill="#fff" stroke="#a35bc9" stroke-linecap="round" stroke-miterlimit="10" stroke-width="2"/>
    </g>
  </g>
</svg>