<?xml version="1.0" encoding="UTF-8"?>
<svg xmlns="http://www.w3.org/2000/svg" version="1.1" viewBox="0 0 320 320">
  <!-- Generator: Adobe Illustrator 30.3.0, SVG Export Plug-In . SVG Version: 2.1.3 Build 182)  -->
  <g id="Hg">
    <circle cx="160" cy="160" r="154.3" fill="#e09cff"/>
  </g>
  <g id="Seite_Lernraum">
    <g>
      <polygon points="203.5 203.6 166.5 223.1 55.6 223.1 55.6 117.7 93.7 98.1 203.5 98.1 203.5 203.6" fill="#fff" stroke="#a35bc9" stroke-miterlimit="10" stroke-width="2"/>
      <line x1="55.6" y1="117.7" x2="93.7" y2="98.1" fill="none" stroke="#a35bc9" stroke-miterlimit="10" stroke-width="2"/>
      <line x1="166.5" y1="117.7" x2="204.1" y2="98.3" fill="none" stroke="#a35bc9" stroke-miterlimit="10" stroke-width="2"/>
      <line x1="203.5" y1="203.6" x2="166.5" y2="223.1" fill="none" stroke="#a35bc9" stroke-miterlimit="10" stroke-width="2"/>
      <polyline points="55.6 223.1 93.7 203.6 203.5 203.6" fill="none" stroke="#a35bc9" stroke-miterlimit="10" stroke-width="2"/>
      <line x1="93.7" y1="98.1" x2="93.7" y2="203.6" fill="none" stroke="#a35bc9" stroke-miterlimit="10" stroke-width="2"/>
      <line x1="55.6" y1="117.7" x2="166.5" y2="117.7" fill="none" stroke="#a35bc9" stroke-miterlimit="10" stroke-width="2"/>
      <g>
        <path d="M161.2,184.7s-6.6,9-36.4,9-36.4-9-36.4-9v-27.7l57.3,7.2,15.4-11.7v32.2Z" fill="#e09cff" stroke="#a35bc9" stroke-miterlimit="10" stroke-width="2"/>
        <polygon points="180 137.8 146.2 164.2 71.5 154.9 105.9 129.4 180 137.8" fill="#e09cff" stroke="#a35bc9" stroke-miterlimit="10" stroke-width="2"/>
        <g>
          <line x1="76.7" y1="155.6" x2="76.6" y2="181.9" fill="none" stroke="#a35bc9" stroke-miterlimit="10" stroke-width="2"/>
          <line x1="76.6" y1="181.9" x2="70.4" y2="202.1" fill="none" stroke="#a35bc9" stroke-miterlimit="10" stroke-width="2"/>
          <line x1="76.6" y1="181.9" x2="77.3" y2="204.1" fill="none" stroke="#a35bc9" stroke-miterlimit="10" stroke-width="2"/>
          <line x1="76.6" y1="181.9" x2="83.6" y2="202.1" fill="none" stroke="#a35bc9" stroke-miterlimit="10" stroke-width="2"/>
        </g>
      </g>
      <line x1="166.5" y1="117.7" x2="166.5" y2="223.1" fill="none" stroke="#a35bc9" stroke-miterlimit="10" stroke-width="2"/>
    </g>
  </g>
  <g id="Seite_Planen">
    <g>
      <rect x="233.5" y="116.2" width="62" height="78" transform="translate(17.5 -26.6) rotate(6)" fill="#fff" stroke="#a35bc9" stroke-miterlimit="10" stroke-width="2"/>
      <path d="M246.4,133.5c1.1,1.6,2.2,3.2,3.3,4.8.1.2.3.4.5.5.3.1.7-.1.9-.4,2.9-2.5,5.7-5.3,8.2-8.2" fill="none" stroke="#a35bc9" stroke-miterlimit="10" stroke-width="2"/>
      <path d="M242.1,174.8c1.1,1.6,2.2,3.2,3.3,4.8.1.2.3.4.5.5.3.1.7-.1.9-.4,2.9-2.5,5.7-5.3,8.2-8.2" fill="none" stroke="#a35bc9" stroke-miterlimit="10" stroke-width="2"/>
      <path d="M244.2,154.1c1.1,1.6,2.2,3.2,3.3,4.8.1.2.3.4.5.5.3.1.7-.1.9-.4,2.9-2.5,5.7-5.3,8.2-8.2" fill="none" stroke="#a35bc9" stroke-miterlimit="10" stroke-width="2"/>
      <line x1="266.9" y1="136.9" x2="285.8" y2="138.8" fill="none" stroke="#a35bc9" stroke-linecap="round" stroke-miterlimit="10" stroke-width="2"/>
      <line x1="264.8" y1="157.5" x2="283.7" y2="159.5" fill="none" stroke="#a35bc9" stroke-linecap="round" stroke-miterlimit="10" stroke-width="2"/>
      <line x1="262.6" y1="178.5" x2="281.5" y2="180.5" fill="none" stroke="#a35bc9" stroke-linecap="round" stroke-miterlimit="10" stroke-width="2"/>
      <path d="M285.7,111.5l-8.5-.9c.5-4.4-2.7-8.3-7.1-8.8-4.4-.5-8.3,2.7-8.8,7.1l-8.5-.9c-1.6-.2-3.1,1-3.3,2.7l-.5,5c-.2,1.6,1,3.1,2.7,3.3l32.8,3.4c1.6.2,3.1-1,3.3-2.7l.5-5c.2-1.6-1-3.1-2.7-3.3ZM268.9,112.9c-1.6-.2-2.8-1.6-2.6-3.3.2-1.6,1.6-2.8,3.3-2.6s2.8,1.6,2.6,3.3c-.2,1.6-1.6,2.8-3.3,2.6Z" fill="#fff" stroke="#a35bc9" stroke-linecap="round" stroke-miterlimit="10" stroke-width="2"/>
    </g>
  </g>
</svg>