<?xml version="1.0" encoding="UTF-8"?>
<svg xmlns="http://www.w3.org/2000/svg" version="1.1" viewBox="0 0 320 320">
  <!-- Generator: Adobe Illustrator 30.2.1, SVG Export Plug-In . SVG Version: 2.1.1 Build 1)  -->
  <g id="Hg">
    <circle cx="160" cy="160" r="154.3" fill="#e09cff"/>
  </g>
  <g id="Planen__x2B__Schreiben">
    <g>
      <rect x="73.5" y="105" width="93.3" height="117.4" transform="translate(17.6 -11.6) rotate(6)" fill="#fff" stroke="#a35bc9" stroke-miterlimit="10" stroke-width="2"/>
      <path d="M92.9,131c1.6,2.4,3.3,4.8,4.9,7.2.2.3.4.6.7.7.5.2,1-.2,1.4-.5,4.4-3.8,8.5-7.9,12.3-12.3" fill="none" stroke="#a35bc9" stroke-miterlimit="10" stroke-width="2"/>
      <path d="M86.4,193.1c1.6,2.4,3.3,4.8,4.9,7.2.2.3.4.6.7.7.5.2,1-.2,1.4-.5,4.4-3.8,8.5-7.9,12.3-12.3" fill="none" stroke="#a35bc9" stroke-miterlimit="10" stroke-width="2"/>
      <path d="M89.7,162c1.6,2.4,3.3,4.8,4.9,7.2.2.3.4.6.7.7.5.2,1-.2,1.4-.5,4.4-3.8,8.5-7.9,12.3-12.3" fill="none" stroke="#a35bc9" stroke-miterlimit="10" stroke-width="2"/>
      <line x1="123.8" y1="136" x2="152.2" y2="139" fill="none" stroke="#a35bc9" stroke-linecap="round" stroke-miterlimit="10" stroke-width="2"/>
      <line x1="120.5" y1="167.1" x2="149" y2="170.1" fill="none" stroke="#a35bc9" stroke-linecap="round" stroke-miterlimit="10" stroke-width="2"/>
      <line x1="117.2" y1="198.7" x2="145.7" y2="201.7" fill="none" stroke="#a35bc9" stroke-linecap="round" stroke-miterlimit="10" stroke-width="2"/>
      <path d="M152,97.9l-12.7-1.3c.7-6.6-4.1-12.5-10.7-13.2-6.6-.7-12.5,4.1-13.2,10.7l-12.7-1.3c-2.5-.3-4.7,1.5-4.9,4l-.8,7.6c-.3,2.5,1.5,4.7,4,4.9l49.4,5.2c2.5.3,4.7-1.5,4.9-4l.8-7.6c.3-2.5-1.5-4.7-4-4.9ZM126.8,100c-2.5-.3-4.2-2.5-4-4.9.3-2.5,2.5-4.2,4.9-4,2.5.3,4.2,2.5,4,4.9-.3,2.5-2.5,4.2-4.9,4Z" fill="#fff" stroke="#a35bc9" stroke-linecap="round" stroke-miterlimit="10" stroke-width="2"/>
    </g>
    <g>
      <polygon points="201.8 106.6 201.8 194.6 218.9 229.9 234.5 194.6 234.5 106.6 201.8 106.6" fill="#fff" stroke="#a35bc9" stroke-miterlimit="10" stroke-width="2"/>
      <line x1="201.9" y1="193.8" x2="234.6" y2="193.8" fill="none" stroke="#a35bc9" stroke-miterlimit="10" stroke-width="2"/>
      <line x1="219" y1="107" x2="219" y2="193.2" fill="none" stroke="#a35bc9" stroke-miterlimit="10" stroke-width="2"/>
    </g>
  </g>
</svg>