<?xml version="1.0" encoding="UTF-8"?>
<svg xmlns="http://www.w3.org/2000/svg" version="1.1" viewBox="0 0 320 320">
  <!-- Generator: Adobe Illustrator 30.3.0, SVG Export Plug-In . SVG Version: 2.1.3 Build 182)  -->
  <g id="Hg">
    <circle cx="160" cy="160" r="154.3" fill="#e09cff"/>
  </g>
  <g id="Seite_Lernraum">
    <g>
      <polygon points="203.5 203.6 166.5 223.1 55.6 223.1 55.6 117.7 93.7 98.1 203.5 98.1 203.5 203.6" fill="#fff" stroke="#a35bc9" stroke-miterlimit="10" stroke-width="2"/>
      <line x1="55.6" y1="117.7" x2="93.7" y2="98.1" fill="none" stroke="#a35bc9" stroke-miterlimit="10" stroke-width="2"/>
      <line x1="166.5" y1="117.7" x2="204.1" y2="98.3" fill="none" stroke="#a35bc9" stroke-miterlimit="10" stroke-width="2"/>
      <line x1="203.5" y1="203.6" x2="166.5" y2="223.1" fill="none" stroke="#a35bc9" stroke-miterlimit="10" stroke-width="2"/>
      <polyline points="55.6 223.1 93.7 203.6 203.5 203.6" fill="none" stroke="#a35bc9" stroke-miterlimit="10" stroke-width="2"/>
      <line x1="93.7" y1="98.1" x2="93.7" y2="203.6" fill="none" stroke="#a35bc9" stroke-miterlimit="10" stroke-width="2"/>
      <line x1="55.6" y1="117.7" x2="166.5" y2="117.7" fill="none" stroke="#a35bc9" stroke-miterlimit="10" stroke-width="2"/>
      <g>
        <path d="M161.2,184.7s-6.6,9-36.4,9-36.4-9-36.4-9v-27.7l57.3,7.2,15.4-11.7v32.2Z" fill="#e09cff" stroke="#a35bc9" stroke-miterlimit="10" stroke-width="2"/>
        <polygon points="180 137.8 146.2 164.2 71.5 154.9 105.9 129.4 180 137.8" fill="#e09cff" stroke="#a35bc9" stroke-miterlimit="10" stroke-width="2"/>
        <g>
          <line x1="76.7" y1="155.6" x2="76.6" y2="181.9" fill="none" stroke="#a35bc9" stroke-miterlimit="10" stroke-width="2"/>
          <line x1="76.6" y1="181.9" x2="70.4" y2="202.1" fill="none" stroke="#a35bc9" stroke-miterlimit="10" stroke-width="2"/>
          <line x1="76.6" y1="181.9" x2="77.3" y2="204.1" fill="none" stroke="#a35bc9" stroke-miterlimit="10" stroke-width="2"/>
          <line x1="76.6" y1="181.9" x2="83.6" y2="202.1" fill="none" stroke="#a35bc9" stroke-miterlimit="10" stroke-width="2"/>
        </g>
      </g>
      <line x1="166.5" y1="117.7" x2="166.5" y2="223.1" fill="none" stroke="#a35bc9" stroke-miterlimit="10" stroke-width="2"/>
    </g>
  </g>
  <g id="Seite_Schreiben__x2B__Lernen">
    <g>
      <polygon points="228.6 76.2 242.3 135.8 259.4 157 264.5 130.7 250.8 71.1 228.6 76.2" fill="#fff" stroke="#a35bc9" stroke-miterlimit="10" stroke-width="2"/>
      <line x1="242.3" y1="135.2" x2="264.4" y2="130.1" fill="none" stroke="#a35bc9" stroke-miterlimit="10" stroke-width="2"/>
      <line x1="240.3" y1="73.8" x2="253.7" y2="132.2" fill="none" stroke="#a35bc9" stroke-miterlimit="10" stroke-width="2"/>
    </g>
    <g>
      <g>
        <rect x="227.3" y="157.4" width="49.2" height="77.4" transform="translate(21.4 417) rotate(-81.7)" fill="#fff" stroke="#a35bc9" stroke-miterlimit="10" stroke-width="2"/>
        <path d="M280.3,220.7s-6.5-3.2-16.3-4.8c-11.3-1.7-15.7-.5-15.7-.5,0,0-4.9-2.1-15.7-3.7s-15.4-.3-15.4-.3l6.9-47.4,63,9.2-6.9,47.4Z" fill="#fff" stroke="#a35bc9" stroke-miterlimit="10" stroke-width="2"/>
        <line x1="248.2" y1="215.5" x2="255.1" y2="168.5" fill="none" stroke="#a35bc9" stroke-miterlimit="10" stroke-width="2"/>
      </g>
      <line x1="225.8" y1="198.1" x2="244.1" y2="200.8" fill="none" stroke="#a35bc9" stroke-linecap="round" stroke-miterlimit="10" stroke-width="2"/>
      <line x1="227.2" y1="189" x2="245.5" y2="191.7" fill="none" stroke="#a35bc9" stroke-linecap="round" stroke-miterlimit="10" stroke-width="2"/>
      <line x1="228.5" y1="179.6" x2="246.8" y2="182.3" fill="none" stroke="#a35bc9" stroke-linecap="round" stroke-miterlimit="10" stroke-width="2"/>
      <line x1="257.3" y1="202.7" x2="275.6" y2="205.4" fill="none" stroke="#a35bc9" stroke-linecap="round" stroke-miterlimit="10" stroke-width="2"/>
      <line x1="258.6" y1="193.6" x2="276.9" y2="196.3" fill="none" stroke="#a35bc9" stroke-linecap="round" stroke-miterlimit="10" stroke-width="2"/>
      <line x1="260" y1="184.2" x2="278.3" y2="186.9" fill="none" stroke="#a35bc9" stroke-linecap="round" stroke-miterlimit="10" stroke-width="2"/>
    </g>
  </g>
</svg>