<?xml version="1.0" encoding="UTF-8"?>
<svg xmlns="http://www.w3.org/2000/svg" version="1.1" viewBox="0 0 320 320">
  <!-- Generator: Adobe Illustrator 30.3.0, SVG Export Plug-In . SVG Version: 2.1.3 Build 182)  -->
  <g id="Hg">
    <circle cx="160" cy="160" r="154.3" fill="#e09cff"/>
  </g>
  <g id="Seite_Lernveranstaltung">
    <g>
      <ellipse cx="125.4" cy="102.4" rx="19.6" ry="19.8" fill="#fff" stroke="#a35bc9" stroke-miterlimit="10" stroke-width="2"/>
      <path d="M125.4,122.6c-19.1,0-34.6,19-34.6,42.3h69.1c0-23.4-15.5-42.3-34.6-42.3Z" fill="#fff" stroke="#a35bc9" stroke-miterlimit="10" stroke-width="2"/>
      <rect x="37.4" y="155.8" width="181.5" height="71.3" fill="#fff" stroke="#a35bc9" stroke-miterlimit="10" stroke-width="2"/>
    </g>
  </g>
  <g id="Seite_Schreiben__x2B__Lernen">
    <g>
      <polygon points="228.6 76.2 242.3 135.8 259.4 157 264.5 130.7 250.8 71.1 228.6 76.2" fill="#fff" stroke="#a35bc9" stroke-miterlimit="10" stroke-width="2"/>
      <line x1="242.3" y1="135.2" x2="264.4" y2="130.1" fill="none" stroke="#a35bc9" stroke-miterlimit="10" stroke-width="2"/>
      <line x1="240.3" y1="73.8" x2="253.7" y2="132.2" fill="none" stroke="#a35bc9" stroke-miterlimit="10" stroke-width="2"/>
    </g>
    <g>
      <g>
        <rect x="227.3" y="157.4" width="49.2" height="77.4" transform="translate(21.4 417) rotate(-81.7)" fill="#fff" stroke="#a35bc9" stroke-miterlimit="10" stroke-width="2"/>
        <path d="M280.3,220.7s-6.5-3.2-16.3-4.8c-11.3-1.7-15.7-.5-15.7-.5,0,0-4.9-2.1-15.7-3.7s-15.4-.3-15.4-.3l6.9-47.4,63,9.2-6.9,47.4Z" fill="#fff" stroke="#a35bc9" stroke-miterlimit="10" stroke-width="2"/>
        <line x1="248.2" y1="215.5" x2="255.1" y2="168.5" fill="none" stroke="#a35bc9" stroke-miterlimit="10" stroke-width="2"/>
      </g>
      <line x1="225.8" y1="198.1" x2="244.1" y2="200.8" fill="none" stroke="#a35bc9" stroke-linecap="round" stroke-miterlimit="10" stroke-width="2"/>
      <line x1="227.2" y1="189" x2="245.5" y2="191.7" fill="none" stroke="#a35bc9" stroke-linecap="round" stroke-miterlimit="10" stroke-width="2"/>
      <line x1="228.5" y1="179.6" x2="246.8" y2="182.3" fill="none" stroke="#a35bc9" stroke-linecap="round" stroke-miterlimit="10" stroke-width="2"/>
      <line x1="257.3" y1="202.7" x2="275.6" y2="205.4" fill="none" stroke="#a35bc9" stroke-linecap="round" stroke-miterlimit="10" stroke-width="2"/>
      <line x1="258.6" y1="193.6" x2="276.9" y2="196.3" fill="none" stroke="#a35bc9" stroke-linecap="round" stroke-miterlimit="10" stroke-width="2"/>
      <line x1="260" y1="184.2" x2="278.3" y2="186.9" fill="none" stroke="#a35bc9" stroke-linecap="round" stroke-miterlimit="10" stroke-width="2"/>
    </g>
  </g>
</svg>