<?xml version="1.0" encoding="UTF-8"?>
<svg xmlns="http://www.w3.org/2000/svg" version="1.1" viewBox="0 0 320 320">
  <!-- Generator: Adobe Illustrator 30.3.0, SVG Export Plug-In . SVG Version: 2.1.3 Build 182)  -->
  <g id="Hg">
    <circle cx="160" cy="160" r="154.3" fill="#e09cff"/>
  </g>
  <g id="Seite_TH_Weit">
    <g>
      <rect x="33.6" y="100.8" width="188.1" height="125.3" fill="#fff" stroke="#a35bc9" stroke-miterlimit="10" stroke-width="2"/>
      <rect x="149.8" y="127.4" width="71.9" height="98.7" fill="#fff" stroke="#a35bc9" stroke-miterlimit="10" stroke-width="2"/>
      <line x1="149.8" y1="175.1" x2="221.7" y2="175.1" fill="#fff" stroke="#a35bc9" stroke-miterlimit="10" stroke-width="2"/>
      <line x1="149.8" y1="151.9" x2="221.7" y2="151.9" fill="#fff" stroke="#a35bc9" stroke-miterlimit="10" stroke-width="2"/>
      <line x1="149.8" y1="201.1" x2="221.7" y2="201.1" fill="#fff" stroke="#a35bc9" stroke-miterlimit="10" stroke-width="2"/>
      <line x1="185.7" y1="127.4" x2="185.7" y2="226.2" fill="#fff" stroke="#a35bc9" stroke-miterlimit="10" stroke-width="2"/>
      <line x1="168.2" y1="127.4" x2="168.2" y2="226.2" fill="#fff" stroke="#a35bc9" stroke-miterlimit="10" stroke-width="2"/>
      <line x1="203.2" y1="127.4" x2="203.2" y2="226.2" fill="#fff" stroke="#a35bc9" stroke-miterlimit="10" stroke-width="2"/>
      <rect x="64.9" y="199.9" width="53.5" height="26.3" fill="#fff" stroke="#a35bc9" stroke-miterlimit="10" stroke-width="2"/>
    </g>
  </g>
  <g id="Seite_Planen">
    <g>
      <rect x="233.5" y="116.2" width="62" height="78" transform="translate(17.5 -26.6) rotate(6)" fill="#fff" stroke="#a35bc9" stroke-miterlimit="10" stroke-width="2"/>
      <path d="M246.4,133.5c1.1,1.6,2.2,3.2,3.3,4.8.1.2.3.4.5.5.3.1.7-.1.9-.4,2.9-2.5,5.7-5.3,8.2-8.2" fill="none" stroke="#a35bc9" stroke-miterlimit="10" stroke-width="2"/>
      <path d="M242.1,174.8c1.1,1.6,2.2,3.2,3.3,4.8.1.2.3.4.5.5.3.1.7-.1.9-.4,2.9-2.5,5.7-5.3,8.2-8.2" fill="none" stroke="#a35bc9" stroke-miterlimit="10" stroke-width="2"/>
      <path d="M244.2,154.1c1.1,1.6,2.2,3.2,3.3,4.8.1.2.3.4.5.5.3.1.7-.1.9-.4,2.9-2.5,5.7-5.3,8.2-8.2" fill="none" stroke="#a35bc9" stroke-miterlimit="10" stroke-width="2"/>
      <line x1="266.9" y1="136.9" x2="285.8" y2="138.8" fill="none" stroke="#a35bc9" stroke-linecap="round" stroke-miterlimit="10" stroke-width="2"/>
      <line x1="264.8" y1="157.5" x2="283.7" y2="159.5" fill="none" stroke="#a35bc9" stroke-linecap="round" stroke-miterlimit="10" stroke-width="2"/>
      <line x1="262.6" y1="178.5" x2="281.5" y2="180.5" fill="none" stroke="#a35bc9" stroke-linecap="round" stroke-miterlimit="10" stroke-width="2"/>
      <path d="M285.7,111.5l-8.5-.9c.5-4.4-2.7-8.3-7.1-8.8-4.4-.5-8.3,2.7-8.8,7.1l-8.5-.9c-1.6-.2-3.1,1-3.3,2.7l-.5,5c-.2,1.6,1,3.1,2.7,3.3l32.8,3.4c1.6.2,3.1-1,3.3-2.7l.5-5c.2-1.6-1-3.1-2.7-3.3ZM268.9,112.9c-1.6-.2-2.8-1.6-2.6-3.3.2-1.6,1.6-2.8,3.3-2.6s2.8,1.6,2.6,3.3c-.2,1.6-1.6,2.8-3.3,2.6Z" fill="#fff" stroke="#a35bc9" stroke-linecap="round" stroke-miterlimit="10" stroke-width="2"/>
    </g>
  </g>
</svg>