<?xml version="1.0" encoding="UTF-8"?>
<svg xmlns="http://www.w3.org/2000/svg" version="1.1" viewBox="0 0 320 320">
  <!-- Generator: Adobe Illustrator 30.3.0, SVG Export Plug-In . SVG Version: 2.1.3 Build 182)  -->
  <g id="Hg">
    <circle cx="160" cy="160" r="154.3" fill="#e09cff"/>
  </g>
  <g id="Seite_Lernveranstaltung">
    <g>
      <ellipse cx="125.4" cy="102.4" rx="19.6" ry="19.8" fill="#fff" stroke="#a35bc9" stroke-miterlimit="10" stroke-width="2"/>
      <path d="M125.4,122.6c-19.1,0-34.6,19-34.6,42.3h69.1c0-23.4-15.5-42.3-34.6-42.3Z" fill="#fff" stroke="#a35bc9" stroke-miterlimit="10" stroke-width="2"/>
      <rect x="37.4" y="155.8" width="181.5" height="71.3" fill="#fff" stroke="#a35bc9" stroke-miterlimit="10" stroke-width="2"/>
    </g>
  </g>
  <g id="Seite_Lernen__x2B__Planen">
    <g>
      <g>
        <rect x="188.5" y="26" width="49.2" height="77.4" transform="translate(118.2 266.1) rotate(-81.7)" fill="#fff" stroke="#a35bc9" stroke-miterlimit="10" stroke-width="2"/>
        <path d="M241.5,89.3s-6.5-3.2-16.3-4.8-15.7-.5-15.7-.5c0,0-4.9-2.1-15.7-3.7-10.4-1.5-15.4-.3-15.4-.3l6.9-47.4,63,9.2-6.9,47.4Z" fill="#fff" stroke="#a35bc9" stroke-miterlimit="10" stroke-width="2"/>
        <line x1="209.4" y1="84" x2="216.2" y2="37.1" fill="none" stroke="#a35bc9" stroke-miterlimit="10" stroke-width="2"/>
      </g>
      <line x1="187" y1="66.7" x2="205.3" y2="69.4" fill="none" stroke="#a35bc9" stroke-linecap="round" stroke-miterlimit="10" stroke-width="2"/>
      <line x1="188.3" y1="57.6" x2="206.6" y2="60.3" fill="none" stroke="#a35bc9" stroke-linecap="round" stroke-miterlimit="10" stroke-width="2"/>
      <line x1="189.7" y1="48.2" x2="208" y2="50.9" fill="none" stroke="#a35bc9" stroke-linecap="round" stroke-miterlimit="10" stroke-width="2"/>
      <line x1="218.4" y1="71.3" x2="236.7" y2="74" fill="none" stroke="#a35bc9" stroke-linecap="round" stroke-miterlimit="10" stroke-width="2"/>
      <line x1="219.7" y1="62.2" x2="238" y2="64.9" fill="none" stroke="#a35bc9" stroke-linecap="round" stroke-miterlimit="10" stroke-width="2"/>
      <line x1="221.1" y1="52.8" x2="239.4" y2="55.5" fill="none" stroke="#a35bc9" stroke-linecap="round" stroke-miterlimit="10" stroke-width="2"/>
    </g>
    <g>
      <rect x="232.9" y="128" width="60.6" height="76.2" transform="translate(18.6 -26.4) rotate(6)" fill="#fff" stroke="#a35bc9" stroke-miterlimit="10" stroke-width="2"/>
      <path d="M245.4,144.9c1.1,1.6,2.1,3.1,3.2,4.7.1.2.3.4.5.4.3.1.7-.1.9-.4,2.9-2.5,5.5-5.1,8-8" fill="none" stroke="#a35bc9" stroke-miterlimit="10" stroke-width="2"/>
      <path d="M241.2,185.2c1.1,1.6,2.1,3.1,3.2,4.7.1.2.3.4.5.4.3.1.7-.1.9-.4,2.9-2.5,5.5-5.1,8-8" fill="none" stroke="#a35bc9" stroke-miterlimit="10" stroke-width="2"/>
      <path d="M243.3,165c1.1,1.6,2.1,3.1,3.2,4.7.1.2.3.4.5.4.3.1.7-.1.9-.4,2.9-2.5,5.5-5.1,8-8" fill="none" stroke="#a35bc9" stroke-miterlimit="10" stroke-width="2"/>
      <line x1="265.5" y1="148.1" x2="284" y2="150.1" fill="none" stroke="#a35bc9" stroke-linecap="round" stroke-miterlimit="10" stroke-width="2"/>
      <line x1="263.4" y1="168.3" x2="281.9" y2="170.3" fill="none" stroke="#a35bc9" stroke-linecap="round" stroke-miterlimit="10" stroke-width="2"/>
      <line x1="261.3" y1="188.8" x2="279.7" y2="190.8" fill="none" stroke="#a35bc9" stroke-linecap="round" stroke-miterlimit="10" stroke-width="2"/>
      <path d="M283.8,123.4l-8.3-.9c.4-4.3-2.7-8.1-7-8.6s-8.1,2.7-8.6,7l-8.3-.9c-1.6-.2-3,1-3.2,2.6l-.5,4.9c-.2,1.6,1,3,2.6,3.2l32.1,3.3c1.6.2,3-1,3.2-2.6l.5-4.9c.2-1.6-1-3-2.6-3.2ZM267.5,124.7c-1.6-.2-2.8-1.6-2.6-3.2.2-1.6,1.6-2.8,3.2-2.6s2.8,1.6,2.6,3.2c-.2,1.6-1.6,2.8-3.2,2.6Z" fill="#fff" stroke="#a35bc9" stroke-linecap="round" stroke-miterlimit="10" stroke-width="2"/>
    </g>
  </g>
</svg>