<?xml version="1.0" encoding="UTF-8"?>
<svg xmlns="http://www.w3.org/2000/svg" version="1.1" viewBox="0 0 320 320">
  <!-- Generator: Adobe Illustrator 30.3.0, SVG Export Plug-In . SVG Version: 2.1.3 Build 182)  -->
  <g id="Hg">
    <circle cx="160" cy="160" r="154.3" fill="#e09cff"/>
  </g>
  <g id="Seite_Lernveranstaltung">
    <g>
      <ellipse cx="125.4" cy="102.4" rx="19.6" ry="19.8" fill="#fff" stroke="#a35bc9" stroke-miterlimit="10" stroke-width="2"/>
      <path d="M125.4,122.6c-19.1,0-34.6,19-34.6,42.3h69.1c0-23.4-15.5-42.3-34.6-42.3Z" fill="#fff" stroke="#a35bc9" stroke-miterlimit="10" stroke-width="2"/>
      <rect x="37.4" y="155.8" width="181.5" height="71.3" fill="#fff" stroke="#a35bc9" stroke-miterlimit="10" stroke-width="2"/>
    </g>
  </g>
  <g id="Seite_Planen__x2B__Schreiben">
    <g>
      <rect x="228.6" y="164.3" width="60.6" height="76.2" transform="translate(22.4 -25.8) rotate(6)" fill="#fff" stroke="#a35bc9" stroke-miterlimit="10" stroke-width="2"/>
      <path d="M241.2,181.2c1.1,1.6,2.1,3.1,3.2,4.7.1.2.3.4.5.4.3.1.7-.1.9-.4,2.9-2.5,5.5-5.1,8-8" fill="none" stroke="#a35bc9" stroke-miterlimit="10" stroke-width="2"/>
      <path d="M237,221.5c1.1,1.6,2.1,3.1,3.2,4.7.1.2.3.4.5.4.3.1.7-.1.9-.4,2.9-2.5,5.5-5.1,8-8" fill="none" stroke="#a35bc9" stroke-miterlimit="10" stroke-width="2"/>
      <path d="M239.1,201.3c1.1,1.6,2.1,3.1,3.2,4.7.1.2.3.4.5.4.3.1.7-.1.9-.4,2.9-2.5,5.5-5.1,8-8" fill="none" stroke="#a35bc9" stroke-miterlimit="10" stroke-width="2"/>
      <line x1="261.2" y1="184.4" x2="279.7" y2="186.4" fill="none" stroke="#a35bc9" stroke-linecap="round" stroke-miterlimit="10" stroke-width="2"/>
      <line x1="259.1" y1="204.6" x2="277.6" y2="206.5" fill="none" stroke="#a35bc9" stroke-linecap="round" stroke-miterlimit="10" stroke-width="2"/>
      <line x1="257" y1="225.1" x2="275.5" y2="227.1" fill="none" stroke="#a35bc9" stroke-linecap="round" stroke-miterlimit="10" stroke-width="2"/>
      <path d="M279.6,159.6l-8.3-.9c.4-4.3-2.7-8.1-7-8.6-4.3-.4-8.1,2.7-8.6,7l-8.3-.9c-1.6-.2-3,1-3.2,2.6l-.5,4.9c-.2,1.6,1,3,2.6,3.2l32.1,3.3c1.6.2,3-1,3.2-2.6l.5-4.9c.2-1.6-1-3-2.6-3.2ZM263.2,161c-1.6-.2-2.8-1.6-2.6-3.2.2-1.6,1.6-2.8,3.2-2.6s2.8,1.6,2.6,3.2c-.2,1.6-1.6,2.8-3.2,2.6Z" fill="#fff" stroke="#a35bc9" stroke-linecap="round" stroke-miterlimit="10" stroke-width="2"/>
    </g>
    <g>
      <polygon points="226.8 57.4 241.5 121 259.8 143.7 265.2 115.6 250.5 51.9 226.8 57.4" fill="#fff" stroke="#a35bc9" stroke-miterlimit="10" stroke-width="2"/>
      <line x1="241.5" y1="120.4" x2="265.1" y2="115" fill="none" stroke="#a35bc9" stroke-miterlimit="10" stroke-width="2"/>
      <line x1="239.4" y1="54.8" x2="253.7" y2="117.2" fill="none" stroke="#a35bc9" stroke-miterlimit="10" stroke-width="2"/>
    </g>
  </g>
</svg>