<?xml version="1.0" encoding="UTF-8"?>
<svg id="Ebene_2" xmlns="http://www.w3.org/2000/svg" version="1.1" viewBox="0 0 320 320">
  <!-- Generator: Adobe Illustrator 30.3.0, SVG Export Plug-In . SVG Version: 2.1.3 Build 182)  -->
  <path d="M161.6,247.3c-7.4-.2-26.9-3.6-39.1-11.7-11.1-7.4-17.8-17.4-17.8-17.4,0,0-26.2-1.7-27.2-24.2-1-22.5,10.1-24.8,10.1-24.8,0,0-12.6-15.2-7.7-31.9,5.4-18.4,12.9-25.6,15.7-23.9-2.3-2.1-13.3-12.3-16-20.4-3-9.1-4.4-13.1-4.4-13.1,0,0,28.5,9.7,53.7,12.7,24,2.9,33.1,12.9,33.8,14.3.7-1.4,7.9-11.4,31.9-14.3,25.2-3,53.7-12.7,53.7-12.7,0,0-1.3,4-4.4,13.1-2.7,8.1-13.6,18.3-16,20.4,2.8-1.7,10.3,5.5,15.7,23.9,4.9,16.7-7.7,31.9-7.7,31.9,0,0,11.1,2.3,10.1,24.8-1,22.5-27.2,24.2-27.2,24.2,0,0-6.7,10.1-17.8,17.4-12.2,8.1-25.9,12.1-39.2,11.7Z" fill="#727272"/>
  <circle cx="122.8" cy="152.7" r="35.6" fill="#fff"/>
  <circle cx="122.8" cy="152.7" r="16.1"/>
  <circle cx="201.3" cy="152.7" r="35.6" fill="#fff"/>
  <circle cx="201" cy="152.7" r="16.1"/>
  <path d="M161.3,176.2s-9.5-.4-8.6,10c.8,10.4,9.1,20,9.1,20,0,0,7.8-11.3,9.1-16.9,1.2-5.6-.8-13.5-9.5-13Z" fill="#e2c934"/>
  <rect x="124.5" y="235.4" width="9.7" height="17.1" rx="4.9" ry="4.9"/>
  <rect x="134.6" y="235.4" width="9.7" height="17.1" rx="4.9" ry="4.9"/>
  <rect x="144.6" y="235.4" width="9.7" height="17.1" rx="4.9" ry="4.9"/>
  <rect x="169.8" y="235.4" width="9.7" height="17.1" rx="4.9" ry="4.9"/>
  <rect x="179.8" y="235.4" width="9.7" height="17.1" rx="4.9" ry="4.9"/>
  <rect x="189.9" y="235.4" width="9.7" height="17.1" rx="4.9" ry="4.9"/>
</svg>