<?xml version="1.0" encoding="UTF-8"?>
<svg id="Roboter_blau_dunkelmodus" xmlns="http://www.w3.org/2000/svg" version="1.1" viewBox="0 0 85 96.2">
  <!-- Generator: Adobe Illustrator 30.5.1, SVG Export Plug-In . SVG Version: 2.1.4 Build 3)  -->
  <path d="M65.9,59.7h-7.6v-12.9H25.8v12.9h-6.5c-6.7,0-11.5,3.9-11.5,10.9s4.8,10,11.5,10h46.7c6.7,0,11.2-3.8,11.2-10.5s-4.5-10.5-11.2-10.5Z" fill="#4c566a"/>
  <rect x="17.4" y="65.3" width="10.2" height="10.2" rx="5.1" ry="5.1" fill="#81a1c1"/>
  <rect x="37.9" y="65.3" width="10.2" height="10.2" rx="5.1" ry="5.1" fill="#81a1c1"/>
  <rect x="58.4" y="65.3" width="10.2" height="10.2" rx="5.1" ry="5.1" fill="#81a1c1"/>
  <g>
    <path d="M85,52.5s-1.3-41.5-42.5-41.5S0,52.5,0,52.5h85Z" fill="#5e81ac"/>
    <rect x="21.9" y="23.7" width="10.8" height="10.8" rx="5.4" ry="5.4" fill="#fff"/>
    <rect x="51.6" y="23.7" width="10.8" height="10.8" rx="5.4" ry="5.4" fill="#fff"/>
    <rect x="24.6" y="26.4" width="5.4" height="5.4" rx="2.7" ry="2.7" fill="#5e81ac"/>
    <rect x="54.3" y="26.4" width="5.4" height="5.4" rx="2.7" ry="2.7" fill="#5e81ac"/>
  </g>
  <path d="M51.7,43.6h-17.1c-.9,0-1.6-.7-1.6-1.6s.7-1.6,1.6-1.6h17.1c.9,0,1.6.7,1.6,1.6s-.7,1.6-1.6,1.6Z" fill="#ebcb8b"/>
</svg>