<?xml version="1.0" encoding="UTF-8"?>
<svg id="Antw_8" xmlns="http://www.w3.org/2000/svg" version="1.1" viewBox="0 0 625 625">
  <!-- Generator: Adobe Illustrator 30.3.0, SVG Export Plug-In . SVG Version: 2.1.3 Build 182)  -->
  <g>
    <circle cx="459.5" cy="140.3" r="55.7" fill="#c0e0ff"/>
    <path d="M437.1,114.6h44.8c6.8,0,12.3,5.5,12.3,12.3v20.8c0,6.8-5.5,12.3-12.3,12.3h-22.4s-15.4,14.9-15.4,14.9l2.2-14.9h-9.3c-6.8,0-12.3-5.5-12.3-12.3v-20.8c0-6.8,5.5-12.3,12.3-12.3Z" fill="#fff" stroke="#4d96ff" stroke-miterlimit="10" stroke-width="2.4"/>
    <line x1="437.7" y1="126.4" x2="482" y2="126.4" fill="none" stroke="#4d96ff" stroke-miterlimit="10" stroke-width="2.4"/>
    <line x1="437.7" y1="136.8" x2="482" y2="136.8" fill="none" stroke="#4d96ff" stroke-miterlimit="10" stroke-width="2.4"/>
    <line x1="437.7" y1="147.7" x2="482" y2="147.7" fill="none" stroke="#4d96ff" stroke-miterlimit="10" stroke-width="2.4"/>
  </g>
  <g>
    <circle cx="535.6" cy="273.7" r="55.7" fill="#c0e0ff"/>
    <path d="M512.9,249.2h44.8c6.8,0,12.3,5.5,12.3,12.3v20.8c0,6.8-5.5,12.3-12.3,12.3h-22.4s-15.4,14.9-15.4,14.9l2.2-14.9h-9.3c-6.8,0-12.3-5.5-12.3-12.3v-20.8c0-6.8,5.5-12.3,12.3-12.3Z" fill="#fff" stroke="#4d96ff" stroke-miterlimit="10" stroke-width="2.4"/>
    <line x1="513.4" y1="261" x2="557.7" y2="261" fill="none" stroke="#4d96ff" stroke-miterlimit="10" stroke-width="2.4"/>
    <line x1="513.4" y1="271.4" x2="557.7" y2="271.4" fill="none" stroke="#4d96ff" stroke-miterlimit="10" stroke-width="2.4"/>
    <line x1="513.4" y1="282.3" x2="557.7" y2="282.3" fill="none" stroke="#4d96ff" stroke-miterlimit="10" stroke-width="2.4"/>
  </g>
  <g>
    <circle cx="508.4" cy="425.4" r="55.7" fill="#c0e0ff"/>
    <path d="M483.9,399.8h44.8c6.8,0,12.3,5.5,12.3,12.3v20.8c0,6.8-5.5,12.3-12.3,12.3h-22.4s-15.4,14.9-15.4,14.9l2.2-14.9h-9.3c-6.8,0-12.3-5.5-12.3-12.3v-20.8c0-6.8,5.5-12.3,12.3-12.3Z" fill="#fff" stroke="#4d96ff" stroke-miterlimit="10" stroke-width="2.4"/>
    <line x1="484.5" y1="411.7" x2="528.8" y2="411.7" fill="none" stroke="#4d96ff" stroke-miterlimit="10" stroke-width="2.4"/>
    <line x1="484.5" y1="422.1" x2="528.8" y2="422.1" fill="none" stroke="#4d96ff" stroke-miterlimit="10" stroke-width="2.4"/>
    <line x1="484.5" y1="433.1" x2="528.8" y2="433.1" fill="none" stroke="#4d96ff" stroke-miterlimit="10" stroke-width="2.4"/>
  </g>
  <g>
    <circle cx="391.6" cy="524.4" r="55.7" fill="#c0e0ff"/>
    <path d="M367.7,498.8h44.8c6.8,0,12.3,5.5,12.3,12.3v20.8c0,6.8-5.5,12.3-12.3,12.3h-22.4s-15.4,14.9-15.4,14.9l2.2-14.9h-9.3c-6.8,0-12.3-5.5-12.3-12.3v-20.8c0-6.8,5.5-12.3,12.3-12.3Z" fill="#fff" stroke="#4d96ff" stroke-miterlimit="10" stroke-width="2.4"/>
    <line x1="368.3" y1="510.6" x2="412.6" y2="510.6" fill="none" stroke="#4d96ff" stroke-miterlimit="10" stroke-width="2.4"/>
    <line x1="368.3" y1="521" x2="412.6" y2="521" fill="none" stroke="#4d96ff" stroke-miterlimit="10" stroke-width="2.4"/>
    <line x1="368.3" y1="531.9" x2="412.6" y2="531.9" fill="none" stroke="#4d96ff" stroke-miterlimit="10" stroke-width="2.4"/>
  </g>
  <g>
    <circle cx="237.5" cy="525.6" r="55.7" fill="#c0e0ff"/>
    <path d="M214,501.7h44.8c6.8,0,12.3,5.5,12.3,12.3v20.8c0,6.8-5.5,12.3-12.3,12.3h-22.4s-15.4,14.9-15.4,14.9l2.2-14.9h-9.3c-6.8,0-12.3-5.5-12.3-12.3v-20.8c0-6.8,5.5-12.3,12.3-12.3Z" fill="#fff" stroke="#4d96ff" stroke-miterlimit="10" stroke-width="2.4"/>
    <line x1="214.7" y1="513.5" x2="259" y2="513.5" fill="none" stroke="#4d96ff" stroke-miterlimit="10" stroke-width="2.4"/>
    <line x1="214.7" y1="523.9" x2="259" y2="523.9" fill="none" stroke="#4d96ff" stroke-miterlimit="10" stroke-width="2.4"/>
    <line x1="214.7" y1="534.9" x2="259" y2="534.9" fill="none" stroke="#4d96ff" stroke-miterlimit="10" stroke-width="2.4"/>
  </g>
  <g>
    <circle cx="118.5" cy="425.6" r="55.7" fill="#c0e0ff"/>
    <path d="M96,400.2h44.8c6.8,0,12.3,5.5,12.3,12.3v20.8c0,6.8-5.5,12.3-12.3,12.3h-22.4s-15.4,14.9-15.4,14.9l2.2-14.9h-9.3c-6.8,0-12.3-5.5-12.3-12.3v-20.8c0-6.8,5.5-12.3,12.3-12.3Z" fill="#fff" stroke="#4d96ff" stroke-miterlimit="10" stroke-width="2.4"/>
    <line x1="96.8" y1="411.9" x2="141.1" y2="411.9" fill="none" stroke="#4d96ff" stroke-miterlimit="10" stroke-width="2.4"/>
    <line x1="96.8" y1="422.3" x2="141.1" y2="422.3" fill="none" stroke="#4d96ff" stroke-miterlimit="10" stroke-width="2.4"/>
    <line x1="96.8" y1="433.3" x2="141.1" y2="433.3" fill="none" stroke="#4d96ff" stroke-miterlimit="10" stroke-width="2.4"/>
  </g>
  <g>
    <circle cx="91.2" cy="272.7" r="55.7" fill="#c0e0ff"/>
    <path d="M67.4,245.9h44.8c6.8,0,12.3,5.5,12.3,12.3v20.8c0,6.8-5.5,12.3-12.3,12.3h-22.4s-15.4,14.9-15.4,14.9l2.2-14.9h-9.3c-6.8,0-12.3-5.5-12.3-12.3v-20.8c0-6.8,5.5-12.3,12.3-12.3Z" fill="#fff" stroke="#4d96ff" stroke-miterlimit="10" stroke-width="2.4"/>
    <line x1="68.7" y1="257.9" x2="113" y2="257.9" fill="none" stroke="#4d96ff" stroke-miterlimit="10" stroke-width="2.4"/>
    <line x1="68.7" y1="268.4" x2="113" y2="268.4" fill="none" stroke="#4d96ff" stroke-miterlimit="10" stroke-width="2.4"/>
    <line x1="68.7" y1="279.3" x2="113" y2="279.3" fill="none" stroke="#4d96ff" stroke-miterlimit="10" stroke-width="2.4"/>
  </g>
  <g>
    <circle cx="170.9" cy="137.6" r="55.7" fill="#c0e0ff"/>
    <path d="M147.4,113.5h44.8c6.8,0,12.3,5.5,12.3,12.3v20.8c0,6.8-5.5,12.3-12.3,12.3h-22.4s-15.4,14.9-15.4,14.9l2.2-14.9h-9.3c-6.8,0-12.3-5.5-12.3-12.3v-20.8c0-6.8,5.5-12.3,12.3-12.3Z" fill="#fff" stroke="#4d96ff" stroke-miterlimit="10" stroke-width="2.4"/>
    <line x1="148.5" y1="125.8" x2="192.8" y2="125.8" fill="none" stroke="#4d96ff" stroke-miterlimit="10" stroke-width="2.4"/>
    <line x1="148.5" y1="136.2" x2="192.8" y2="136.2" fill="none" stroke="#4d96ff" stroke-miterlimit="10" stroke-width="2.4"/>
    <line x1="148.5" y1="147.2" x2="192.8" y2="147.2" fill="none" stroke="#4d96ff" stroke-miterlimit="10" stroke-width="2.4"/>
  </g>
  <g>
    <circle cx="313.3" cy="86.9" r="55.7" fill="#c0e0ff"/>
    <g>
      <path d="M296.1,91.5c0,1-.2,1.9-.7,2.6s-1.2,1.3-2.2,1.7-2.1.6-3.4.6-1.2,0-1.7-.1-1.1-.2-1.6-.3-1-.3-1.5-.6v-3.4c.8.4,1.7.7,2.5,1s1.7.4,2.6.4,1.1,0,1.4-.2.6-.4.8-.6.2-.6.2-.9-.1-.8-.4-1.1-.7-.6-1.2-.9-1.1-.6-1.7-.9c-.4-.2-.8-.4-1.3-.7s-.9-.6-1.3-1-.8-.9-1-1.4-.4-1.2-.4-2,.2-1.9.7-2.6,1.1-1.3,2-1.7,1.9-.6,3.1-.6,1.7.1,2.5.3,1.7.5,2.5.9l-1.2,2.8c-.8-.3-1.5-.6-2.1-.7s-1.3-.3-1.9-.3-.8,0-1.2.2-.6.3-.7.6-.2.6-.2.9.1.7.4,1,.6.5,1.1.8,1.1.6,1.8.9c.9.4,1.6.8,2.2,1.3s1.1,1,1.4,1.6.5,1.4.5,2.3Z" fill="#4d96ff"/>
      <path d="M304.5,93.6c.4,0,.8,0,1.1-.1s.7-.2,1.1-.3v2.7c-.4.2-.9.3-1.4.4s-1.2.2-1.9.2-1.5-.1-2.1-.4-1.1-.7-1.5-1.3-.5-1.5-.5-2.6v-6.3h-1.7v-1.5l2-1.2,1-2.8h2.3v2.8h3.7v2.7h-3.7v6.3c0,.5.1.9.4,1.1s.7.4,1.1.4Z" fill="#4d96ff"/>
      <path d="M314.8,82.9c1.8,0,3.1.4,4,1.1s1.4,1.9,1.4,3.5v8.7h-2.5l-.7-1.8h0c-.4.5-.8.9-1.1,1.1s-.8.5-1.3.7-1.1.2-1.9.2-1.5-.1-2.1-.4-1.1-.8-1.4-1.4-.5-1.4-.5-2.3c0-1.4.5-2.4,1.5-3.1s2.4-1,4.4-1.1h2.3v-.6c0-.7-.2-1.2-.5-1.5s-.9-.5-1.5-.5-1.3,0-1.9.3-1.2.4-1.8.7l-1.2-2.4c.7-.4,1.5-.7,2.3-.9s1.8-.3,2.7-.3ZM316.7,90.2h-1.4c-1.2,0-2,.3-2.4.7s-.7.9-.7,1.5.2.9.5,1.2.7.3,1.3.3c.8,0,1.4-.2,1.9-.7s.8-1.1.8-1.9v-1.1Z" fill="#4d96ff"/>
      <path d="M331.2,82.9c.2,0,.4,0,.6,0s.4,0,.6,0l-.3,3.4c-.1,0-.3,0-.5,0s-.4,0-.6,0c-.5,0-.9,0-1.3.2s-.8.3-1.2.6-.6.6-.8,1-.3.9-.3,1.6v6.7h-3.6v-13.1h2.7l.5,2.2h.2c.3-.4.6-.9,1-1.2s.8-.7,1.3-.9,1-.3,1.6-.3Z" fill="#4d96ff"/>
      <path d="M340.3,93.6c.4,0,.8,0,1.1-.1s.7-.2,1.1-.3v2.7c-.4.2-.9.3-1.4.4s-1.2.2-1.9.2-1.5-.1-2.1-.4-1.1-.7-1.5-1.3-.5-1.5-.5-2.6v-6.3h-1.7v-1.5l2-1.2,1-2.8h2.3v2.8h3.7v2.7h-3.7v6.3c0,.5.1.9.4,1.1s.7.4,1.1.4Z" fill="#4d96ff"/>
    </g>
  </g>
</svg>