<?xml version="1.0" encoding="UTF-8"?>
<svg id="Schritt_4_x5F_1" xmlns="http://www.w3.org/2000/svg" xmlns:xlink="http://www.w3.org/1999/xlink" version="1.1" viewBox="0 0 625 625">
  <!-- Generator: Adobe Illustrator 30.2.1, SVG Export Plug-In . SVG Version: 2.1.1 Build 1)  -->
  <defs>
    <filter id="drop-shadow-1" x="322.8" y="455.7" width="137.2" height="137.2" filterUnits="userSpaceOnUse">
      <feOffset dx="4.5" dy="4.5"/>
      <feGaussianBlur result="blur" stdDeviation="0"/>
      <feFlood flood-color="#245ebc" flood-opacity="1"/>
      <feComposite in2="blur" operator="in"/>
      <feComposite in="SourceGraphic"/>
    </filter>
  </defs>
  <g filter="url(#drop-shadow-1)">
    <circle cx="389.2" cy="522.1" r="64.7" fill="#fff" stroke="#fff" stroke-miterlimit="10" stroke-width="3.3"/>
    <path d="M363.9,493.6h53.6c8.1,0,14.7,6.6,14.7,14.7v24.8c0,8.1-6.6,14.7-14.7,14.7h-26.8s-18.4,17.9-18.4,17.9l2.6-17.9h-11.1c-8.1,0-14.7-6.6-14.7-14.7v-24.8c0-8.1,6.6-14.7,14.7-14.7Z" fill="#fff" stroke="#333" stroke-miterlimit="10" stroke-width="3"/>
    <path d="M387.4,525.1v-1.3c0-.8.1-1.5.3-2.1.2-.6.6-1.2,1.1-1.7s1.1-1.1,1.9-1.7c.7-.5,1.3-1,1.7-1.4s.7-.8,1-1.2.3-.9.3-1.4c0-.7-.3-1.3-.8-1.7s-1.3-.6-2.3-.6-2,.2-3,.5-2,.7-3,1.2l-1.9-3.8c1.2-.6,2.4-1.2,3.8-1.6s2.8-.6,4.4-.6c2.5,0,4.4.6,5.7,1.8,1.4,1.2,2,2.7,2,4.5s-.2,1.8-.5,2.5c-.3.7-.8,1.4-1.4,2-.6.6-1.4,1.2-2.3,1.9-.7.5-1.2.9-1.6,1.3-.4.3-.6.7-.8,1-.1.3-.2.8-.2,1.2v1h-4.6ZM386.8,531c0-1.1.3-1.8.9-2.3.6-.4,1.3-.7,2.2-.7s1.5.2,2.1.7c.6.4.9,1.2.9,2.3s-.3,1.8-.9,2.2c-.6.5-1.3.7-2.1.7s-1.6-.2-2.2-.7c-.6-.5-.9-1.2-.9-2.2Z" fill="#333"/>
  </g>
</svg>