<?xml version="1.0" encoding="UTF-8"?>
<svg id="Start" xmlns="http://www.w3.org/2000/svg" xmlns:xlink="http://www.w3.org/1999/xlink" version="1.1" viewBox="0 0 625 625">
  <!-- Generator: Adobe Illustrator 30.2.1, SVG Export Plug-In . SVG Version: 2.1.1 Build 1)  -->
  <defs>
    <filter id="drop-shadow-1" x="247.2" y="19.7" width="137.2" height="137.2" filterUnits="userSpaceOnUse">
      <feOffset dx="4.5" dy="4.5"/>
      <feGaussianBlur result="blur" stdDeviation="0"/>
      <feFlood flood-color="#245ebc" flood-opacity="1"/>
      <feComposite in2="blur" operator="in"/>
      <feComposite in="SourceGraphic"/>
    </filter>
  </defs>
  <g filter="url(#drop-shadow-1)">
    <circle cx="313.6" cy="86.1" r="64.7" fill="#fff" stroke="#fff" stroke-miterlimit="10" stroke-width="3.3"/>
    <g>
      <path d="M289.7,92.1c0,1.3-.3,2.5-1,3.4s-1.6,1.7-2.8,2.3c-1.2.5-2.7.8-4.5.8s-1.5,0-2.3-.2c-.7-.1-1.4-.3-2.1-.4s-1.3-.4-1.9-.7v-4.4c1.1.5,2.2.9,3.3,1.3s2.3.6,3.4.6,1.4-.1,1.9-.3c.5-.2.8-.5,1-.8.2-.4.3-.8.3-1.2s-.2-1-.6-1.4c-.4-.4-.9-.8-1.5-1.1s-1.4-.7-2.2-1.1c-.5-.2-1.1-.5-1.7-.9-.6-.4-1.2-.8-1.7-1.3-.5-.5-1-1.1-1.3-1.8-.4-.7-.5-1.6-.5-2.6s.3-2.5.9-3.4c.6-.9,1.5-1.7,2.6-2.2s2.5-.8,4-.8,2.3.1,3.3.4c1,.3,2.1.7,3.3,1.2l-1.5,3.7c-1-.4-1.9-.7-2.8-1-.8-.2-1.6-.3-2.5-.3s-1.1,0-1.5.3-.7.5-.9.8c-.2.3-.3.7-.3,1.2s.2,1,.5,1.3c.3.4.8.7,1.4,1,.6.3,1.4.7,2.3,1.2,1.1.5,2.1,1.1,2.9,1.7.8.6,1.4,1.3,1.9,2.1s.7,1.8.7,2.9Z" fill="#333"/>
      <path d="M300.5,94.9c.5,0,1,0,1.5-.2.5-.1,1-.2,1.4-.4v3.5c-.5.2-1.1.4-1.9.6-.7.1-1.5.2-2.4.2s-1.9-.2-2.7-.5c-.8-.3-1.4-.9-1.9-1.7-.5-.8-.7-2-.7-3.4v-8.2h-2.2v-2l2.6-1.6,1.3-3.6h3v3.6h4.8v3.5h-4.8v8.2c0,.6.2,1.1.6,1.5.4.3.9.5,1.5.5Z" fill="#333"/>
      <path d="M313.9,80.9c2.3,0,4,.5,5.3,1.5,1.2,1,1.8,2.5,1.8,4.5v11.3h-3.2l-.9-2.3h-.1c-.5.6-1,1.1-1.5,1.5s-1.1.7-1.8.9c-.7.2-1.5.3-2.4.3s-1.9-.2-2.7-.6-1.4-1-1.9-1.8c-.5-.8-.7-1.8-.7-3,0-1.8.6-3.1,1.9-4,1.3-.9,3.2-1.3,5.7-1.4h3v-.8c0-.9-.2-1.5-.7-2-.5-.4-1.1-.6-1.9-.6s-1.6.1-2.4.4c-.8.2-1.6.5-2.4.9l-1.5-3.1c.9-.5,1.9-.9,3-1.1,1.1-.3,2.3-.4,3.5-.4ZM316.3,90.4h-1.8c-1.5.1-2.5.4-3.1.9-.6.5-.9,1.2-.9,2s.2,1.2.6,1.5,1,.4,1.6.4c1,0,1.8-.3,2.5-.9.7-.6,1-1.4,1-2.5v-1.4Z" fill="#333"/>
      <path d="M335.2,81c.2,0,.5,0,.8,0s.6,0,.8,0l-.4,4.4c-.2,0-.4,0-.6-.1s-.5,0-.7,0c-.6,0-1.2,0-1.7.2-.6.2-1.1.4-1.5.7-.4.3-.8.8-1.1,1.3s-.4,1.2-.4,2v8.7h-4.6v-17h3.5l.7,2.9h.2c.3-.6.8-1.1,1.3-1.6.5-.5,1.1-.9,1.7-1.2.6-.3,1.3-.4,2.1-.4Z" fill="#333"/>
      <path d="M347,94.9c.5,0,1,0,1.5-.2.5-.1,1-.2,1.4-.4v3.5c-.5.2-1.1.4-1.9.6-.7.1-1.5.2-2.4.2s-1.9-.2-2.7-.5c-.8-.3-1.4-.9-1.9-1.7-.5-.8-.7-2-.7-3.4v-8.2h-2.2v-2l2.6-1.6,1.3-3.6h3v3.6h4.8v3.5h-4.8v8.2c0,.6.2,1.1.6,1.5.4.3.9.5,1.5.5Z" fill="#333"/>
    </g>
  </g>
</svg>