<?xml version="1.0" encoding="UTF-8"?>
<svg id="Startgrafik" xmlns="http://www.w3.org/2000/svg" version="1.1" viewBox="0 0 1102.3 592.1">
  <!-- Generator: Adobe Illustrator 30.2.1, SVG Export Plug-In . SVG Version: 2.1.1 Build 1)  -->
  <g>
    <polygon points="625.6 406.3 522.9 384.2 536.4 319.4 638.1 342.4 625.6 406.3" fill="#fff" stroke="#333" stroke-miterlimit="10" stroke-width="1.8"/>
    <path d="M618.1,397.1s-6.4-5.5-19.5-7.9c-15.6-2.9-22.9-1.2-22.9-1.2,0,0-7.4-4.2-21.9-6.9-13.9-2.6-20-1.7-20-1.7l13.1-63.2,83.3,18.3-12.1,62.6Z" fill="#fff" stroke="#333" stroke-miterlimit="10" stroke-width="1.8"/>
    <line x1="575.6" y1="388" x2="587.4" y2="325.1" fill="none" stroke="#333" stroke-miterlimit="10" stroke-width="1.8"/>
    <line x1="550.6" y1="337.4" x2="576" y2="342.7" fill="none" stroke="#333" stroke-miterlimit="10" stroke-width="1.8"/>
    <line x1="548" y1="349.8" x2="573.4" y2="355.1" fill="none" stroke="#333" stroke-miterlimit="10" stroke-width="1.8"/>
    <line x1="545.5" y1="362" x2="570.9" y2="367.3" fill="none" stroke="#333" stroke-miterlimit="10" stroke-width="1.8"/>
    <line x1="592" y1="346.2" x2="617.4" y2="351.4" fill="none" stroke="#333" stroke-miterlimit="10" stroke-width="1.8"/>
    <line x1="589.4" y1="358.6" x2="614.8" y2="363.9" fill="none" stroke="#333" stroke-miterlimit="10" stroke-width="1.8"/>
    <line x1="586.8" y1="370.8" x2="612.2" y2="376.1" fill="none" stroke="#333" stroke-miterlimit="10" stroke-width="1.8"/>
  </g>
  <g>
    <rect x="754.3" y="242.8" width="71.9" height="90.4" transform="translate(34.1 -80.4) rotate(6)" fill="#fff" stroke="#333" stroke-miterlimit="10" stroke-width="1.8"/>
    <path d="M769.3,262.8c1.3,1.8,2.5,3.7,3.8,5.5.1.2.3.4.6.5.4.1.8-.2,1.1-.4,3.4-2.9,6.6-6.1,9.5-9.5" fill="none" stroke="#333" stroke-miterlimit="10" stroke-width="1.8"/>
    <path d="M764.3,310.6c1.3,1.8,2.5,3.7,3.8,5.5.1.2.3.4.6.5.4.1.8-.2,1.1-.4,3.4-2.9,6.6-6.1,9.5-9.5" fill="none" stroke="#333" stroke-miterlimit="10" stroke-width="1.8"/>
    <path d="M766.8,286.7c1.3,1.8,2.5,3.7,3.8,5.5.1.2.3.4.6.5.4.1.8-.2,1.1-.4,3.4-2.9,6.6-6.1,9.5-9.5" fill="none" stroke="#333" stroke-miterlimit="10" stroke-width="1.8"/>
    <line x1="793" y1="266.7" x2="814.9" y2="269" fill="none" stroke="#333" stroke-linecap="round" stroke-miterlimit="10" stroke-width="1.8"/>
    <line x1="790.5" y1="290.6" x2="812.4" y2="292.9" fill="none" stroke="#333" stroke-linecap="round" stroke-miterlimit="10" stroke-width="1.8"/>
    <line x1="788" y1="314.9" x2="809.9" y2="317.2" fill="none" stroke="#333" stroke-linecap="round" stroke-miterlimit="10" stroke-width="1.8"/>
    <path d="M814.8,237.3l-9.8-1c.5-5.1-3.2-9.6-8.3-10.2-5.1-.5-9.6,3.2-10.2,8.3l-9.8-1c-1.9-.2-3.6,1.2-3.8,3.1l-.6,5.8c-.2,1.9,1.2,3.6,3.1,3.8l38,4c1.9.2,3.6-1.2,3.8-3.1l.6-5.8c.2-1.9-1.2-3.6-3.1-3.8ZM795.4,238.9c-1.9-.2-3.3-1.9-3.1-3.8.2-1.9,1.9-3.3,3.8-3.1,1.9.2,3.3,1.9,3.1,3.8s-1.9,3.3-3.8,3.1Z" fill="#fff" stroke="#333" stroke-linecap="round" stroke-miterlimit="10" stroke-width="1.8"/>
  </g>
  <g>
    <polygon points="680 380.3 700.1 448.7 719.2 473.9 723.2 441.8 705.4 373.5 680 380.3" fill="#fff" stroke="#333" stroke-miterlimit="10" stroke-width="1.8"/>
    <line x1="700.1" y1="448.7" x2="723.2" y2="441.8" fill="none" stroke="#333" stroke-miterlimit="10" stroke-width="1.8"/>
    <line x1="692.7" y1="376.9" x2="711.6" y2="445.1" fill="none" stroke="#333" stroke-miterlimit="10" stroke-width="1.8"/>
  </g>
  <g>
    <path d="M827.3,407.6h53c8,0,14.5,6.5,14.5,14.5v24.6c0,8-6.5,14.5-14.5,14.5h-26.5s-18.2,17.7-18.2,17.7l2.6-17.7h-10.9c-8,0-14.5-6.5-14.5-14.5v-24.6c0-8,6.5-14.5,14.5-14.5Z" fill="#fff" stroke="#333" stroke-miterlimit="10" stroke-width="1.8"/>
    <path d="M927.2,377.5h-53c-8,0-14.5,6.5-14.5,14.5v24.6c0,8,6.5,14.5,14.5,14.5h26.5l18.2,17.7-2.6-17.7h10.9c8,0,14.5-6.5,14.5-14.5v-24.6c0-8-6.5-14.5-14.5-14.5Z" fill="#fff" stroke="#333" stroke-miterlimit="10" stroke-width="1.8"/>
    <g>
      <path d="M892.2,416.8c0-1.2.9-2.2,2.1-2.2s2,.9,2,2.2-.8,2.2-2.1,2.2-2-.9-2-2.2Z" fill="#333"/>
      <path d="M899.4,416.8c0-1.2.9-2.2,2.1-2.2s2,.9,2,2.2-.8,2.2-2.1,2.2-2-.9-2-2.2Z" fill="#333"/>
      <path d="M906.5,416.8c0-1.2.9-2.2,2.1-2.2s2,.9,2,2.2-.8,2.2-2.1,2.2-2-.9-2-2.2Z" fill="#333"/>
    </g>
    <g>
      <path d="M846,445.5c0-1.2.9-2.2,2.1-2.2s2,.9,2,2.2-.8,2.2-2.1,2.2-2-.9-2-2.2Z" fill="#333"/>
      <path d="M853.1,445.5c0-1.2.9-2.2,2.1-2.2s2,.9,2,2.2-.8,2.2-2.1,2.2-2-.9-2-2.2Z" fill="#333"/>
      <path d="M860.2,445.5c0-1.2.9-2.2,2.1-2.2s2,.9,2,2.2-.8,2.2-2.1,2.2-2-.9-2-2.2Z" fill="#333"/>
    </g>
  </g>
  <g>
    <circle cx="152.6" cy="346.2" r="52.2" fill="#fff" stroke="#333" stroke-miterlimit="10" stroke-width="1.6"/>
    <path d="M152.6,399.5c-50.7,0-91.9,49.8-91.9,111.3h183.8c0-61.5-41.1-111.3-91.9-111.3Z" fill="#fff" stroke="#333" stroke-miterlimit="10" stroke-width="1.6"/>
    <circle cx="133.8" cy="340.1" r="2.8" fill="#333"/>
    <circle cx="173.8" cy="340.1" r="2.8" fill="#333"/>
    <path d="M136.3,361.2s4.2,5.6,17.4,6.1c13.2.5,17.4-6.1,17.4-6.1" fill="none" stroke="#333" stroke-linecap="round" stroke-miterlimit="10" stroke-width="1.6"/>
  </g>
  <path d="M449.3,278.4h-166.8c-5.2,0-9.5,4.3-9.5,9.5v49.3c0,5.2,4.3,9.5,9.5,9.5h27.4l-8.8,19.7,24.6-19.7h123.6c5.2,0,9.5-4.3,9.5-9.5v-49.3c0-5.2-4.3-9.5-9.5-9.5Z" fill="#fff" stroke="#033333" stroke-miterlimit="10" stroke-width="1.6"/>
  <path d="M273.9,149.6h-134.9c-4.6,0-8.4,3.8-8.4,8.4v84.8c0,4.6,3.8,8.4,8.4,8.4h84.2l.3,16.1,15.8-16.1h34.6c4.6,0,8.4-3.8,8.4-8.4v-84.8c0-4.6-3.8-8.4-8.4-8.4Z" fill="#fff" stroke="#033333" stroke-miterlimit="10" stroke-width="1.6"/>
  <path d="M532.5,421.6h-174.5c-5.2,0-9.5,4.3-9.5,9.5v18.7l-31.9-2.7s31.9,16.1,31.9,16.6v38c0,5.2,4.3,9.5,9.5,9.5h174.5c5.2,0,9.5-4.3,9.5-9.5v-70.6c0-5.2-4.3-9.5-9.5-9.5Z" fill="#fff" stroke="#033333" stroke-miterlimit="10" stroke-width="1.6"/>
  <path d="M663.5,182.3h-120.7c-4.8,0-8.7,3.9-8.7,8.7v37.8l-25.2,17.6,25.2-.7v25.3c0,4.8,3.9,8.7,8.7,8.7h120.7c4.8,0,8.7-3.9,8.7-8.7v-80c0-4.8-3.9-8.7-8.7-8.7Z" fill="#fff" stroke="#033333" stroke-miterlimit="10" stroke-width="1.6"/>
  <path d="M463.4,131.7h-102.2c-5.2,0-9.5,4.3-9.5,9.5v58.6c0,5.2,4.3,9.5,9.5,9.5h35.7l-3.6,25.4,23.8-25.4h46.3c5.2,0,9.5-4.3,9.5-9.5v-58.6c0-5.2-4.3-9.5-9.5-9.5Z" fill="#fff" stroke="#033333" stroke-miterlimit="10" stroke-width="1.6"/>
  <g>
    <path d="M317,298.5l-2.8,10.9h-2.6l-1.5-5.7c0-.1,0-.3-.1-.5,0-.2-.1-.5-.2-.7s-.1-.5-.1-.8c0-.2,0-.4,0-.6,0,.1,0,.3,0,.6,0,.2,0,.5-.1.7,0,.3-.1.5-.2.7s0,.4-.1.5l-1.5,5.7h-2.6l-2.8-10.9h2.3l1.4,6c0,.2,0,.4.1.6,0,.2.1.5.2.8,0,.3,0,.5.1.8,0,.3,0,.5,0,.7,0-.2,0-.4,0-.7s0-.5.1-.8c0-.3,0-.5.1-.7s0-.4.1-.5l1.6-6.1h2.2l1.6,6.1c0,.1,0,.3.1.5,0,.2,0,.5.1.7,0,.3,0,.5.1.8s0,.5,0,.7c0-.2,0-.6.1-.9s.1-.7.2-1.1c0-.4.1-.7.2-.9l1.4-6h2.3Z" fill="#333"/>
    <path d="M321.6,300.9c1.1,0,2,.2,2.6.7.6.5.9,1.2.9,2.2v5.6h-1.6l-.4-1.1h0c-.2.3-.5.5-.7.7-.2.2-.5.3-.9.4s-.7.1-1.2.1-.9,0-1.3-.3-.7-.5-.9-.9c-.2-.4-.3-.9-.3-1.5,0-.9.3-1.5.9-2,.6-.4,1.6-.7,2.8-.7h1.5v-.4c0-.4-.1-.8-.3-1-.2-.2-.5-.3-1-.3s-.8,0-1.2.2c-.4.1-.8.3-1.2.4l-.8-1.5c.4-.2.9-.4,1.5-.6.6-.1,1.1-.2,1.7-.2ZM322.9,305.6h-.9c-.7,0-1.3.2-1.5.4-.3.2-.4.6-.4,1s.1.6.3.7c.2.1.5.2.8.2.5,0,.9-.1,1.2-.4.3-.3.5-.7.5-1.2v-.7Z" fill="#333"/>
    <path d="M333.3,307c0,.6-.1,1-.4,1.4s-.7.7-1.2.9-1.2.3-2,.3-1.1,0-1.5-.1c-.4,0-.8-.2-1.3-.4v-1.9c.5.2.9.4,1.5.5.5.1,1,.2,1.4.2s.8,0,1-.2c.2-.1.3-.3.3-.5s0-.3-.1-.4-.2-.2-.5-.4c-.3-.1-.7-.3-1.2-.6-.5-.2-1-.4-1.3-.7s-.6-.5-.7-.8-.2-.7-.2-1.2c0-.8.3-1.4.9-1.7.6-.4,1.4-.6,2.4-.6s1,0,1.5.2,1,.3,1.5.5l-.7,1.6c-.4-.2-.8-.3-1.2-.4-.4-.1-.7-.2-1.1-.2s-.6,0-.8.1c-.2,0-.3.2-.3.4s0,.3.1.4c0,.1.3.2.5.3s.6.3,1.1.5c.5.2.9.4,1.2.6.3.2.6.5.8.8s.3.7.3,1.2Z" fill="#333"/>
    <path d="M344.9,307c0,.6-.1,1-.4,1.4s-.7.7-1.2.9-1.2.3-2,.3-1.1,0-1.5-.1c-.4,0-.8-.2-1.3-.4v-1.9c.5.2.9.4,1.5.5.5.1,1,.2,1.4.2s.8,0,1-.2c.2-.1.3-.3.3-.5s0-.3-.1-.4-.2-.2-.5-.4c-.3-.1-.7-.3-1.2-.6-.5-.2-1-.4-1.3-.7s-.6-.5-.7-.8-.2-.7-.2-1.2c0-.8.3-1.4.9-1.7.6-.4,1.4-.6,2.4-.6s1,0,1.5.2,1,.3,1.5.5l-.7,1.6c-.4-.2-.8-.3-1.2-.4-.4-.1-.7-.2-1.1-.2s-.6,0-.8.1c-.2,0-.3.2-.3.4s0,.3.1.4c0,.1.3.2.5.3s.6.3,1.1.5c.5.2.9.4,1.2.6.3.2.6.5.8.8s.3.7.3,1.2Z" fill="#333"/>
    <path d="M354.3,305.2c0,.7,0,1.3-.3,1.9-.2.5-.5,1-.8,1.4-.4.4-.8.7-1.3.8s-1.1.3-1.7.3-1.1,0-1.6-.3-.9-.5-1.3-.8c-.4-.4-.6-.8-.8-1.4-.2-.5-.3-1.2-.3-1.9s.2-1.7.5-2.4c.3-.6.8-1.1,1.4-1.5.6-.3,1.3-.5,2.2-.5s1.5.2,2.1.5c.6.3,1.1.8,1.4,1.5s.5,1.4.5,2.4ZM348.5,305.2c0,.5,0,1,.2,1.4.1.4.3.7.6.8.3.2.6.3,1,.3s.7,0,1-.3.4-.5.6-.8.2-.8.2-1.4,0-1-.2-1.4c-.1-.4-.3-.6-.6-.8-.3-.2-.6-.3-1-.3-.6,0-1,.2-1.3.6-.3.4-.4,1-.4,1.9Z" fill="#333"/>
    <path d="M358.5,309.4h-2.3v-11.6h2.3v11.6Z" fill="#333"/>
    <path d="M363.1,309.4h-2.3v-11.6h2.3v11.6Z" fill="#333"/>
    <path d="M370.7,297.8c.3,0,.6,0,.9.2.2.2.4.5.4.9s-.1.7-.4.9c-.2.2-.5.2-.9.2s-.6,0-.9-.2-.4-.5-.4-.9.1-.7.4-.9.5-.2.9-.2ZM371.8,301.1v8.4h-2.3v-8.4h2.3Z" fill="#333"/>
    <path d="M377.6,309.6c-.8,0-1.5-.2-2.1-.5s-1-.8-1.3-1.4c-.3-.6-.5-1.4-.5-2.4s.2-1.9.5-2.5c.3-.6.8-1.1,1.4-1.4.6-.3,1.3-.5,2.1-.5s1.1,0,1.5.2c.4.1.8.2,1.1.4l-.7,1.8c-.4-.1-.7-.3-1-.4-.3,0-.6-.1-.9-.1s-.7,0-1,.3c-.3.2-.5.5-.6.8s-.2.8-.2,1.4,0,1,.2,1.4c.1.4.3.6.6.8s.6.3,1,.3.9,0,1.3-.2c.4-.1.7-.3,1.1-.5v2c-.3.2-.7.4-1.1.5-.4,0-.9.1-1.4.1Z" fill="#333"/>
    <path d="M384.4,297.8v2.4c0,.4,0,.8,0,1.2,0,.4,0,.6,0,.8h.1c.2-.3.4-.5.6-.7.2-.2.5-.3.8-.4.3,0,.6-.1,1-.1.6,0,1.1.1,1.6.3s.8.5,1,1c.2.5.4,1,.4,1.8v5.5h-2.3v-4.9c0-.6-.1-1-.3-1.4-.2-.3-.6-.5-1-.5s-.8.1-1.1.3-.5.5-.6.9c-.1.4-.2.9-.2,1.5v3.9h-2.3v-11.6h2.3Z" fill="#333"/>
    <path d="M403.8,301.1v8.4h-1.8l-.3-1.1h-.1c-.2.3-.4.5-.7.7s-.6.3-.9.4-.7.1-1,.1c-.6,0-1.1-.1-1.6-.3-.4-.2-.8-.5-1-1-.2-.4-.4-1-.4-1.8v-5.5h2.3v4.9c0,.6.1,1.1.3,1.4.2.3.6.5,1,.5s.8-.1,1.1-.3c.3-.2.5-.5.6-.9s.2-.9.2-1.5v-3.9h2.3ZM397.4,298.9c0-.4.1-.6.3-.8.2-.2.4-.2.7-.2s.5,0,.7.2c.2.2.3.4.3.8s-.1.6-.3.7c-.2.2-.5.2-.7.2s-.5,0-.7-.2c-.2-.2-.3-.4-.3-.7ZM400.4,298.9c0-.4.1-.6.3-.8.2-.2.5-.2.8-.2s.5,0,.7.2c.2.2.3.4.3.8s-.1.6-.3.7c-.2.2-.5.2-.7.2s-.5,0-.8-.2c-.2-.2-.3-.4-.3-.7Z" fill="#333"/>
    <path d="M408.5,297.8v2.7c0,.3,0,.6,0,.9,0,.3,0,.5,0,.7h0c.2-.3.5-.6.9-.9s.9-.4,1.5-.4c.9,0,1.7.4,2.3,1.1.6.7.9,1.8.9,3.2s-.1,1.8-.4,2.4c-.3.6-.6,1.1-1.1,1.5-.5.3-1,.5-1.7.5s-1.1-.1-1.5-.3c-.4-.2-.6-.5-.9-.7h-.2l-.4.9h-1.7v-11.6h2.3ZM410.1,302.7c-.4,0-.7,0-1,.2-.2.2-.4.4-.5.7s-.2.7-.2,1.2v.2c0,.8.1,1.4.4,1.9.2.4.7.6,1.3.6s.8-.2,1.1-.7c.3-.4.4-1.1.4-1.9s-.1-1.4-.4-1.8-.7-.6-1.1-.6Z" fill="#333"/>
    <path d="M419.3,300.9c.8,0,1.4.1,2,.4s1,.7,1.3,1.3c.3.6.5,1.3.5,2.1v1.1h-5.4c0,.6.2,1.1.6,1.5.4.4.9.5,1.5.5s1,0,1.5-.2c.4-.1.9-.3,1.4-.5v1.8c-.4.2-.8.4-1.3.4-.5,0-1,.1-1.6.1s-1.6-.2-2.2-.5c-.6-.3-1.2-.8-1.5-1.4-.4-.6-.5-1.4-.5-2.4s.2-1.8.5-2.4c.3-.7.8-1.1,1.4-1.5.6-.3,1.3-.5,2.1-.5ZM419.4,302.5c-.4,0-.8.1-1.1.4-.3.3-.5.7-.5,1.3h3.2c0-.3,0-.6-.2-.9-.1-.3-.3-.5-.5-.6-.2-.2-.5-.2-.9-.2Z" fill="#333"/>
    <path d="M429.6,300.9c.1,0,.2,0,.4,0,.2,0,.3,0,.4,0l-.2,2.1c0,0-.2,0-.3,0-.1,0-.3,0-.4,0-.3,0-.6,0-.9.1-.3,0-.5.2-.7.4-.2.2-.4.4-.5.7-.1.3-.2.6-.2,1v4.3h-2.3v-8.4h1.7l.3,1.4h.1c.2-.3.4-.5.6-.8.2-.2.5-.4.8-.6.3-.1.7-.2,1-.2Z" fill="#333"/>
    <path d="M306.1,328c-.9,0-1.7-.4-2.3-1.1s-.9-1.8-.9-3.2.3-2.5.9-3.3c.6-.7,1.4-1.1,2.3-1.1s.8,0,1.1.2c.3.1.6.3.8.4s.4.4.6.6h0c0-.2,0-.4-.1-.7s0-.6,0-1v-2.7h2.3v11.6h-1.8l-.4-1.1h0c-.1.2-.3.4-.5.6-.2.2-.5.3-.8.4-.3.1-.7.2-1.1.2ZM306.9,326.2c.6,0,1.1-.2,1.3-.6.3-.4.4-.9.4-1.7v-.2c0-.8-.1-1.4-.4-1.9-.2-.4-.7-.6-1.4-.6s-.9.2-1.2.7-.4,1.1-.4,1.9.1,1.4.4,1.8c.3.4.7.6,1.2.6Z" fill="#333"/>
    <path d="M314.3,316.2c.3,0,.6,0,.9.2.2.2.4.5.4.9s-.1.7-.4.9c-.2.2-.5.2-.9.2s-.6,0-.9-.2-.4-.5-.4-.9.1-.7.4-.9.5-.2.9-.2ZM315.4,319.5v8.4h-2.3v-8.4h2.3Z" fill="#333"/>
    <path d="M321.2,328c-.8,0-1.5-.2-2.1-.5s-1-.8-1.3-1.4c-.3-.6-.5-1.4-.5-2.4s.2-1.9.5-2.5c.3-.6.8-1.1,1.4-1.4.6-.3,1.3-.5,2.1-.5s1.1,0,1.5.2c.4.1.8.2,1.1.4l-.7,1.8c-.4-.1-.7-.3-1-.4-.3,0-.6-.1-.9-.1s-.7,0-1,.3c-.3.2-.5.5-.6.8s-.2.8-.2,1.4,0,1,.2,1.4c.1.4.3.6.6.8s.6.3,1,.3.9,0,1.3-.2c.4-.1.7-.3,1.1-.5v2c-.3.2-.7.4-1.1.5-.4,0-.9.1-1.4.1Z" fill="#333"/>
    <path d="M327.9,316.2v2.4c0,.4,0,.8,0,1.2,0,.4,0,.6,0,.8h.1c.2-.3.4-.5.6-.7.2-.2.5-.3.8-.4.3,0,.6-.1,1-.1.6,0,1.1.1,1.6.3s.8.5,1,1c.2.5.4,1,.4,1.8v5.5h-2.3v-4.9c0-.6-.1-1-.3-1.4-.2-.3-.6-.5-1-.5s-.8.1-1.1.3-.5.5-.6.9c-.1.4-.2.9-.2,1.5v3.9h-2.3v-11.6h2.3Z" fill="#333"/>
    <path d="M346.6,327.8l-.6-2.9c0-.2,0-.4-.2-.8s-.2-.7-.3-1.1c0-.4-.2-.8-.3-1.1s-.1-.6-.2-.7h0c0,.2,0,.4-.2.7,0,.3-.2.7-.2,1.1,0,.4-.2.8-.3,1.1s-.1.6-.2.8l-.7,2.9h-2.5l-2.4-8.4h2.3l1,3.7c0,.3.1.6.2.9,0,.4.1.7.2,1,0,.3,0,.6.1.8h0c0-.1,0-.3,0-.6,0-.2,0-.5.1-.7,0-.3,0-.5.1-.7s0-.3,0-.4l1-4h2.5l1,4c0,.1,0,.4.1.7,0,.3.1.6.2,1s0,.6,0,.8h0c0-.2,0-.4.1-.8,0-.3.1-.7.2-1.1,0-.4.1-.7.2-.9l1-3.7h2.2l-2.4,8.4h-2.5Z" fill="#333"/>
    <path d="M354,316.2c.3,0,.6,0,.9.2.2.2.4.5.4.9s-.1.7-.4.9c-.2.2-.5.2-.9.2s-.6,0-.9-.2-.4-.5-.4-.9.1-.7.4-.9.5-.2.9-.2ZM355.1,319.5v8.4h-2.3v-8.4h2.3Z" fill="#333"/>
    <path d="M363.3,325.3c0,.6-.1,1-.4,1.4s-.7.7-1.2.9-1.2.3-2,.3-1.1,0-1.5-.1c-.4,0-.8-.2-1.3-.4v-1.9c.5.2.9.4,1.5.5.5.1,1,.2,1.4.2s.8,0,1-.2c.2-.1.3-.3.3-.5s0-.3-.1-.4-.2-.2-.5-.4c-.3-.1-.7-.3-1.2-.6-.5-.2-1-.4-1.3-.7s-.6-.5-.7-.8-.2-.7-.2-1.2c0-.8.3-1.4.9-1.7.6-.4,1.4-.6,2.4-.6s1,0,1.5.2,1,.3,1.5.5l-.7,1.6c-.4-.2-.8-.3-1.2-.4-.4-.1-.7-.2-1.1-.2s-.6,0-.8.1c-.2,0-.3.2-.3.4s0,.3.1.4c0,.1.3.2.5.3s.6.3,1.1.5c.5.2.9.4,1.2.6.3.2.6.5.8.8s.3.7.3,1.2Z" fill="#333"/>
    <path d="M371,325.3c0,.6-.1,1-.4,1.4s-.7.7-1.2.9-1.2.3-2,.3-1.1,0-1.5-.1c-.4,0-.8-.2-1.3-.4v-1.9c.5.2.9.4,1.5.5.5.1,1,.2,1.4.2s.8,0,1-.2c.2-.1.3-.3.3-.5s0-.3-.1-.4-.2-.2-.5-.4c-.3-.1-.7-.3-1.2-.6-.5-.2-1-.4-1.3-.7s-.6-.5-.7-.8-.2-.7-.2-1.2c0-.8.3-1.4.9-1.7.6-.4,1.4-.6,2.4-.6s1,0,1.5.2,1,.3,1.5.5l-.7,1.6c-.4-.2-.8-.3-1.2-.4-.4-.1-.7-.2-1.1-.2s-.6,0-.8.1c-.2,0-.3.2-.3.4s0,.3.1.4c0,.1.3.2.5.3s.6.3,1.1.5c.5.2.9.4,1.2.6.3.2.6.5.8.8s.3.7.3,1.2Z" fill="#333"/>
    <path d="M376.2,319.3c.8,0,1.4.1,2,.4s1,.7,1.3,1.3c.3.6.5,1.3.5,2.1v1.1h-5.4c0,.6.2,1.1.6,1.5.4.4.9.5,1.5.5s1,0,1.5-.2c.4-.1.9-.3,1.4-.5v1.8c-.4.2-.8.4-1.3.4-.5,0-1,.1-1.6.1s-1.6-.2-2.2-.5c-.6-.3-1.2-.8-1.5-1.4-.4-.6-.5-1.4-.5-2.4s.2-1.8.5-2.4c.3-.7.8-1.1,1.4-1.5.6-.3,1.3-.5,2.1-.5ZM376.2,320.9c-.4,0-.8.1-1.1.4-.3.3-.5.7-.5,1.3h3.2c0-.3,0-.6-.2-.9-.1-.3-.3-.5-.5-.6-.2-.2-.5-.2-.9-.2Z" fill="#333"/>
    <path d="M386.5,319.3c.9,0,1.6.2,2.2.7.5.5.8,1.3.8,2.3v5.5h-2.3v-4.9c0-.6-.1-1-.3-1.4-.2-.3-.6-.5-1-.5-.7,0-1.2.2-1.4.7-.3.5-.4,1.2-.4,2v3.9h-2.3v-8.4h1.7l.3,1.1h.1c.2-.3.4-.5.7-.7.3-.2.6-.3.9-.4.3,0,.7-.1,1-.1Z" fill="#333"/>
    <path d="M392.7,324.2v-.6c0-.3,0-.6.1-.9s.2-.5.5-.7c.2-.2.5-.5.8-.7.3-.2.6-.4.7-.6.2-.2.3-.3.4-.5,0-.2.1-.4.1-.6,0-.3-.1-.6-.4-.7s-.6-.3-1-.3-.9,0-1.3.2-.8.3-1.3.5l-.8-1.6c.5-.3,1-.5,1.6-.7.6-.2,1.2-.3,1.9-.3,1.1,0,1.9.3,2.5.8s.9,1.2.9,1.9,0,.8-.2,1.1c-.1.3-.3.6-.6.9s-.6.5-1,.8c-.3.2-.5.4-.7.6-.2.1-.3.3-.3.4,0,.1,0,.3,0,.5v.4h-2ZM392.5,326.8c0-.5.1-.8.4-1s.6-.3.9-.3.7,0,.9.3c.3.2.4.5.4,1s-.1.8-.4,1c-.3.2-.6.3-.9.3s-.7,0-.9-.3c-.3-.2-.4-.5-.4-1Z" fill="#333"/>
  </g>
  <g>
    <path d="M163.8,177.4l-2.8,10.9h-2.6l-1.5-5.7c0-.1,0-.3-.1-.5,0-.2-.1-.5-.2-.7s-.1-.5-.1-.8c0-.2,0-.4,0-.6,0,.1,0,.3,0,.6,0,.2,0,.5-.1.7,0,.3-.1.5-.2.7s0,.4-.1.5l-1.5,5.7h-2.6l-2.8-10.9h2.3l1.4,6c0,.2,0,.4.1.6,0,.2.1.5.2.8,0,.3,0,.5.1.8,0,.3,0,.5,0,.7,0-.2,0-.4,0-.7s0-.5.1-.8c0-.3,0-.5.1-.7s0-.4.1-.5l1.6-6.1h2.2l1.6,6.1c0,.1,0,.3.1.5,0,.2,0,.5.1.7,0,.3,0,.5.1.8s0,.5,0,.7c0-.2,0-.6.1-.9s.1-.7.2-1.1c0-.4.1-.7.2-.9l1.4-6h2.3Z" fill="#333"/>
    <path d="M168.5,179.8c.8,0,1.4.1,2,.4s1,.7,1.3,1.3c.3.6.5,1.3.5,2.1v1.1h-5.4c0,.6.2,1.1.6,1.5.4.4.9.5,1.5.5s1,0,1.5-.2c.4-.1.9-.3,1.4-.5v1.8c-.4.2-.8.4-1.3.4-.5,0-1,.1-1.6.1s-1.6-.2-2.2-.5c-.6-.3-1.2-.8-1.5-1.4-.4-.6-.5-1.4-.5-2.4s.2-1.8.5-2.4c.3-.7.8-1.1,1.4-1.5.6-.3,1.3-.5,2.1-.5ZM168.5,181.4c-.4,0-.8.1-1.1.4-.3.3-.5.7-.5,1.3h3.2c0-.3,0-.6-.2-.9-.1-.3-.3-.5-.5-.6-.2-.2-.5-.2-.9-.2Z" fill="#333"/>
    <path d="M176.3,188.3h-2.3v-11.6h2.3v11.6Z" fill="#333"/>
    <path d="M182.1,188.4c-.8,0-1.5-.2-2.1-.5s-1-.8-1.3-1.4c-.3-.6-.5-1.4-.5-2.4s.2-1.9.5-2.5c.3-.6.8-1.1,1.4-1.4.6-.3,1.3-.5,2.1-.5s1.1,0,1.5.2c.4.1.8.2,1.1.4l-.7,1.8c-.4-.1-.7-.3-1-.4-.3,0-.6-.1-.9-.1s-.7,0-1,.3c-.3.2-.5.5-.6.8s-.2.8-.2,1.4,0,1,.2,1.4c.1.4.3.6.6.8s.6.3,1,.3.9,0,1.3-.2c.4-.1.7-.3,1.1-.5v2c-.3.2-.7.4-1.1.5-.4,0-.9.1-1.4.1Z" fill="#333"/>
    <path d="M188.9,176.7v2.4c0,.4,0,.8,0,1.2,0,.4,0,.6,0,.8h.1c.2-.3.4-.5.6-.7.2-.2.5-.3.8-.4.3,0,.6-.1,1-.1.6,0,1.1.1,1.6.3s.8.5,1,1c.2.5.4,1,.4,1.8v5.5h-2.3v-4.9c0-.6-.1-1-.3-1.4-.2-.3-.6-.5-1-.5s-.8.1-1.1.3-.5.5-.6.9c-.1.4-.2.9-.2,1.5v3.9h-2.3v-11.6h2.3Z" fill="#333"/>
    <path d="M200.1,179.8c.8,0,1.4.1,2,.4s1,.7,1.3,1.3c.3.6.5,1.3.5,2.1v1.1h-5.4c0,.6.2,1.1.6,1.5.4.4.9.5,1.5.5s1,0,1.5-.2c.4-.1.9-.3,1.4-.5v1.8c-.4.2-.8.4-1.3.4-.5,0-1,.1-1.6.1s-1.6-.2-2.2-.5c-.6-.3-1.2-.8-1.5-1.4-.4-.6-.5-1.4-.5-2.4s.2-1.8.5-2.4c.3-.7.8-1.1,1.4-1.5.6-.3,1.3-.5,2.1-.5ZM200.2,181.4c-.4,0-.8.1-1.1.4-.3.3-.5.7-.5,1.3h3.2c0-.3,0-.6-.2-.9-.1-.3-.3-.5-.5-.6-.2-.2-.5-.2-.9-.2Z" fill="#333"/>
    <path d="M210.5,179.8c.9,0,1.6.2,2.2.7.5.5.8,1.3.8,2.3v5.5h-2.3v-4.9c0-.6-.1-1-.3-1.4-.2-.3-.6-.5-1-.5-.7,0-1.2.2-1.4.7-.3.5-.4,1.2-.4,2v3.9h-2.3v-8.4h1.7l.3,1.1h.1c.2-.3.4-.5.7-.7.3-.2.6-.3.9-.4.3,0,.7-.1,1-.1Z" fill="#333"/>
    <path d="M163.8,195.7l-2.8,10.9h-2.6l-1.5-5.7c0-.1,0-.3-.1-.5,0-.2-.1-.5-.2-.7s-.1-.5-.1-.8c0-.2,0-.4,0-.6,0,.1,0,.3,0,.6,0,.2,0,.5-.1.7,0,.3-.1.5-.2.7s0,.4-.1.5l-1.5,5.7h-2.6l-2.8-10.9h2.3l1.4,6c0,.2,0,.4.1.6,0,.2.1.5.2.8,0,.3,0,.5.1.8,0,.3,0,.5,0,.7,0-.2,0-.4,0-.7s0-.5.1-.8c0-.3,0-.5.1-.7s0-.4.1-.5l1.6-6.1h2.2l1.6,6.1c0,.1,0,.3.1.5,0,.2,0,.5.1.7,0,.3,0,.5.1.8s0,.5,0,.7c0-.2,0-.6.1-.9s.1-.7.2-1.1c0-.4.1-.7.2-.9l1.4-6h2.3Z" fill="#333"/>
    <path d="M166.2,195c.3,0,.6,0,.9.2.2.2.4.5.4.9s-.1.7-.4.9c-.2.2-.5.2-.9.2s-.6,0-.9-.2-.4-.5-.4-.9.1-.7.4-.9.5-.2.9-.2ZM167.3,198.3v8.4h-2.3v-8.4h2.3Z" fill="#333"/>
    <path d="M175.5,204.2c0,.6-.1,1-.4,1.4s-.7.7-1.2.9-1.2.3-2,.3-1.1,0-1.5-.1c-.4,0-.8-.2-1.3-.4v-1.9c.5.2.9.4,1.5.5.5.1,1,.2,1.4.2s.8,0,1-.2c.2-.1.3-.3.3-.5s0-.3-.1-.4-.2-.2-.5-.4c-.3-.1-.7-.3-1.2-.6-.5-.2-1-.4-1.3-.7s-.6-.5-.7-.8-.2-.7-.2-1.2c0-.8.3-1.4.9-1.7.6-.4,1.4-.6,2.4-.6s1,0,1.5.2,1,.3,1.5.5l-.7,1.6c-.4-.2-.8-.3-1.2-.4-.4-.1-.7-.2-1.1-.2s-.6,0-.8.1c-.2,0-.3.2-.3.4s0,.3.1.4c0,.1.3.2.5.3s.6.3,1.1.5c.5.2.9.4,1.2.6.3.2.6.5.8.8s.3.7.3,1.2Z" fill="#333"/>
    <path d="M183.1,204.2c0,.6-.1,1-.4,1.4s-.7.7-1.2.9-1.2.3-2,.3-1.1,0-1.5-.1c-.4,0-.8-.2-1.3-.4v-1.9c.5.2.9.4,1.5.5.5.1,1,.2,1.4.2s.8,0,1-.2c.2-.1.3-.3.3-.5s0-.3-.1-.4-.2-.2-.5-.4c-.3-.1-.7-.3-1.2-.6-.5-.2-1-.4-1.3-.7s-.6-.5-.7-.8-.2-.7-.2-1.2c0-.8.3-1.4.9-1.7.6-.4,1.4-.6,2.4-.6s1,0,1.5.2,1,.3,1.5.5l-.7,1.6c-.4-.2-.8-.3-1.2-.4-.4-.1-.7-.2-1.1-.2s-.6,0-.8.1c-.2,0-.3.2-.3.4s0,.3.1.4c0,.1.3.2.5.3s.6.3,1.1.5c.5.2.9.4,1.2.6.3.2.6.5.8.8s.3.7.3,1.2Z" fill="#333"/>
    <path d="M188.4,198.2c.8,0,1.4.1,2,.4s1,.7,1.3,1.3c.3.6.5,1.3.5,2.1v1.1h-5.4c0,.6.2,1.1.6,1.5.4.4.9.5,1.5.5s1,0,1.5-.2c.4-.1.9-.3,1.4-.5v1.8c-.4.2-.8.4-1.3.4-.5,0-1,.1-1.6.1s-1.6-.2-2.2-.5c-.6-.3-1.2-.8-1.5-1.4-.4-.6-.5-1.4-.5-2.4s.2-1.8.5-2.4c.3-.7.8-1.1,1.4-1.5.6-.3,1.3-.5,2.1-.5ZM188.4,199.8c-.4,0-.8.1-1.1.4-.3.3-.5.7-.5,1.3h3.2c0-.3,0-.6-.2-.9-.1-.3-.3-.5-.5-.6-.2-.2-.5-.2-.9-.2Z" fill="#333"/>
    <path d="M198.7,198.2c.9,0,1.6.2,2.2.7.5.5.8,1.3.8,2.3v5.5h-2.3v-4.9c0-.6-.1-1-.3-1.4-.2-.3-.6-.5-1-.5-.7,0-1.2.2-1.4.7-.3.5-.4,1.2-.4,2v3.9h-2.3v-8.4h1.7l.3,1.1h.1c.2-.3.4-.5.7-.7.3-.2.6-.3.9-.4.3,0,.7-.1,1-.1Z" fill="#333"/>
    <path d="M209.9,204.2c0,.6-.1,1-.4,1.4s-.7.7-1.2.9-1.2.3-2,.3-1.1,0-1.5-.1c-.4,0-.8-.2-1.3-.4v-1.9c.5.2.9.4,1.5.5.5.1,1,.2,1.4.2s.8,0,1-.2c.2-.1.3-.3.3-.5s0-.3-.1-.4-.2-.2-.5-.4c-.3-.1-.7-.3-1.2-.6-.5-.2-1-.4-1.3-.7s-.6-.5-.7-.8-.2-.7-.2-1.2c0-.8.3-1.4.9-1.7.6-.4,1.4-.6,2.4-.6s1,0,1.5.2,1,.3,1.5.5l-.7,1.6c-.4-.2-.8-.3-1.2-.4-.4-.1-.7-.2-1.1-.2s-.6,0-.8.1c-.2,0-.3.2-.3.4s0,.3.1.4c0,.1.3.2.5.3s.6.3,1.1.5c.5.2.9.4,1.2.6.3.2.6.5.8.8s.3.7.3,1.2Z" fill="#333"/>
    <path d="M217.5,204.2c0,.6-.1,1-.4,1.4s-.7.7-1.2.9-1.2.3-2,.3-1.1,0-1.5-.1c-.4,0-.8-.2-1.3-.4v-1.9c.5.2.9.4,1.5.5.5.1,1,.2,1.4.2s.8,0,1-.2c.2-.1.3-.3.3-.5s0-.3-.1-.4-.2-.2-.5-.4c-.3-.1-.7-.3-1.2-.6-.5-.2-1-.4-1.3-.7s-.6-.5-.7-.8-.2-.7-.2-1.2c0-.8.3-1.4.9-1.7.6-.4,1.4-.6,2.4-.6s1,0,1.5.2,1,.3,1.5.5l-.7,1.6c-.4-.2-.8-.3-1.2-.4-.4-.1-.7-.2-1.1-.2s-.6,0-.8.1c-.2,0-.3.2-.3.4s0,.3.1.4c0,.1.3.2.5.3s.6.3,1.1.5c.5.2.9.4,1.2.6.3.2.6.5.8.8s.3.7.3,1.2Z" fill="#333"/>
    <path d="M222.8,205c.2,0,.5,0,.7,0,.2,0,.5-.1.7-.2v1.7c-.2.1-.5.2-.9.3-.4,0-.8.1-1.2.1s-.9,0-1.3-.2-.7-.4-.9-.8c-.2-.4-.3-1-.3-1.7v-4h-1.1v-1l1.3-.8.7-1.8h1.5v1.8h2.3v1.7h-2.3v4c0,.3,0,.6.3.7.2.2.4.2.7.2Z" fill="#333"/>
    <path d="M229.4,198.1c1.1,0,2,.2,2.6.7.6.5.9,1.2.9,2.2v5.6h-1.6l-.4-1.1h0c-.2.3-.5.5-.7.7-.2.2-.5.3-.9.4s-.7.1-1.2.1-.9,0-1.3-.3-.7-.5-.9-.9c-.2-.4-.3-.9-.3-1.5,0-.9.3-1.5.9-2,.6-.4,1.6-.7,2.8-.7h1.5v-.4c0-.4-.1-.8-.3-1-.2-.2-.5-.3-1-.3s-.8,0-1.2.2c-.4.1-.8.3-1.2.4l-.8-1.5c.4-.2.9-.4,1.5-.6.6-.1,1.1-.2,1.7-.2ZM230.6,202.8h-.9c-.7,0-1.3.2-1.5.4-.3.2-.4.6-.4,1s.1.6.3.7c.2.1.5.2.8.2.5,0,.9-.1,1.2-.4.3-.3.5-.7.5-1.2v-.7Z" fill="#333"/>
    <path d="M239.9,198.2c.9,0,1.6.2,2.2.7.5.5.8,1.3.8,2.3v5.5h-2.3v-4.9c0-.6-.1-1-.3-1.4-.2-.3-.6-.5-1-.5-.7,0-1.2.2-1.4.7-.3.5-.4,1.2-.4,2v3.9h-2.3v-8.4h1.7l.3,1.1h.1c.2-.3.4-.5.7-.7.3-.2.6-.3.9-.4.3,0,.7-.1,1-.1Z" fill="#333"/>
    <path d="M247.9,206.8c-.9,0-1.7-.4-2.3-1.1s-.9-1.8-.9-3.2.3-2.5.9-3.3c.6-.7,1.4-1.1,2.3-1.1s.8,0,1.1.2c.3.1.6.3.8.4s.4.4.6.6h0c0-.2,0-.4-.1-.7s0-.6,0-1v-2.7h2.3v11.6h-1.8l-.4-1.1h0c-.1.2-.3.4-.5.6-.2.2-.5.3-.8.4-.3.1-.7.2-1.1.2ZM248.7,205c.6,0,1.1-.2,1.3-.6.3-.4.4-.9.4-1.7v-.2c0-.8-.1-1.4-.4-1.9-.2-.4-.7-.6-1.4-.6s-.9.2-1.2.7-.4,1.1-.4,1.9.1,1.4.4,1.8c.3.4.7.6,1.2.6Z" fill="#333"/>
    <path d="M156,222.6c0,.6-.1,1-.4,1.4s-.7.7-1.2.9-1.2.3-2,.3-1.1,0-1.5-.1c-.4,0-.8-.2-1.3-.4v-1.9c.5.2.9.4,1.5.5.5.1,1,.2,1.4.2s.8,0,1-.2c.2-.1.3-.3.3-.5s0-.3-.1-.4-.2-.2-.5-.4c-.3-.1-.7-.3-1.2-.6-.5-.2-1-.4-1.3-.7s-.6-.5-.7-.8-.2-.7-.2-1.2c0-.8.3-1.4.9-1.7.6-.4,1.4-.6,2.4-.6s1,0,1.5.2,1,.3,1.5.5l-.7,1.6c-.4-.2-.8-.3-1.2-.4-.4-.1-.7-.2-1.1-.2s-.6,0-.8.1c-.2,0-.3.2-.3.4s0,.3.1.4c0,.1.3.2.5.3s.6.3,1.1.5c.5.2.9.4,1.2.6.3.2.6.5.8.8s.3.7.3,1.2Z" fill="#333"/>
    <path d="M165.4,220.9c0,.7,0,1.3-.3,1.9-.2.5-.5,1-.8,1.4-.4.4-.8.7-1.3.8s-1.1.3-1.7.3-1.1,0-1.6-.3-.9-.5-1.3-.8c-.4-.4-.6-.8-.8-1.4-.2-.5-.3-1.2-.3-1.9s.2-1.7.5-2.4c.3-.6.8-1.1,1.4-1.5.6-.3,1.3-.5,2.2-.5s1.5.2,2.1.5c.6.3,1.1.8,1.4,1.5s.5,1.4.5,2.4ZM159.6,220.9c0,.5,0,1,.2,1.4.1.4.3.7.6.8.3.2.6.3,1,.3s.7,0,1-.3.4-.5.6-.8.2-.8.2-1.4,0-1-.2-1.4c-.1-.4-.3-.6-.6-.8-.3-.2-.6-.3-1-.3-.6,0-1,.2-1.3.6-.3.4-.4,1-.4,1.9Z" fill="#333"/>
    <path d="M169.6,225.1h-2.3v-11.6h2.3v11.6Z" fill="#333"/>
    <path d="M174.3,225.1h-2.3v-11.6h2.3v11.6Z" fill="#333"/>
    <path d="M181.8,213.4c.3,0,.6,0,.9.2.2.2.4.5.4.9s-.1.7-.4.9c-.2.2-.5.2-.9.2s-.6,0-.9-.2-.4-.5-.4-.9.1-.7.4-.9.5-.2.9-.2ZM182.9,216.7v8.4h-2.3v-8.4h2.3Z" fill="#333"/>
    <path d="M188.7,225.2c-.8,0-1.5-.2-2.1-.5s-1-.8-1.3-1.4c-.3-.6-.5-1.4-.5-2.4s.2-1.9.5-2.5c.3-.6.8-1.1,1.4-1.4.6-.3,1.3-.5,2.1-.5s1.1,0,1.5.2c.4.1.8.2,1.1.4l-.7,1.8c-.4-.1-.7-.3-1-.4-.3,0-.6-.1-.9-.1s-.7,0-1,.3c-.3.2-.5.5-.6.8s-.2.8-.2,1.4,0,1,.2,1.4c.1.4.3.6.6.8s.6.3,1,.3.9,0,1.3-.2c.4-.1.7-.3,1.1-.5v2c-.3.2-.7.4-1.1.5-.4,0-.9.1-1.4.1Z" fill="#333"/>
    <path d="M195.5,213.4v2.4c0,.4,0,.8,0,1.2,0,.4,0,.6,0,.8h.1c.2-.3.4-.5.6-.7.2-.2.5-.3.8-.4.3,0,.6-.1,1-.1.6,0,1.1.1,1.6.3s.8.5,1,1c.2.5.4,1,.4,1.8v5.5h-2.3v-4.9c0-.6-.1-1-.3-1.4-.2-.3-.6-.5-1-.5s-.8.1-1.1.3-.5.5-.6.9c-.1.4-.2.9-.2,1.5v3.9h-2.3v-11.6h2.3Z" fill="#333"/>
    <path d="M209.5,213.4v2.4c0,.4,0,.8,0,1.2,0,.4,0,.6,0,.8h.1c.2-.3.4-.5.6-.7.2-.2.5-.3.8-.4.3,0,.6-.1,1-.1.6,0,1.1.1,1.6.3s.8.5,1,1c.2.5.4,1,.4,1.8v5.5h-2.3v-4.9c0-.6-.1-1-.3-1.4-.2-.3-.6-.5-1-.5s-.8.1-1.1.3-.5.5-.6.9c-.1.4-.2.9-.2,1.5v3.9h-2.3v-11.6h2.3Z" fill="#333"/>
    <path d="M220.7,216.5c1.1,0,2,.2,2.6.7.6.5.9,1.2.9,2.2v5.6h-1.6l-.4-1.1h0c-.2.3-.5.5-.7.7-.2.2-.5.3-.9.4s-.7.1-1.2.1-.9,0-1.3-.3-.7-.5-.9-.9c-.2-.4-.3-.9-.3-1.5,0-.9.3-1.5.9-2,.6-.4,1.6-.7,2.8-.7h1.5v-.4c0-.4-.1-.8-.3-1-.2-.2-.5-.3-1-.3s-.8,0-1.2.2c-.4.1-.8.3-1.2.4l-.8-1.5c.4-.2.9-.4,1.5-.6.6-.1,1.1-.2,1.7-.2ZM221.9,221.2h-.9c-.7,0-1.3.2-1.5.4-.3.2-.4.6-.4,1s.1.6.3.7c.2.1.5.2.8.2.5,0,.9-.1,1.2-.4.3-.3.5-.7.5-1.2v-.7Z" fill="#333"/>
    <path d="M228.8,213.4v2.7c0,.3,0,.6,0,.9,0,.3,0,.5,0,.7h0c.2-.3.5-.6.9-.9s.9-.4,1.5-.4c.9,0,1.7.4,2.3,1.1.6.7.9,1.8.9,3.2s-.1,1.8-.4,2.4c-.3.6-.6,1.1-1.1,1.5-.5.3-1,.5-1.7.5s-1.1-.1-1.5-.3c-.4-.2-.6-.5-.9-.7h-.2l-.4.9h-1.7v-11.6h2.3ZM230.5,218.4c-.4,0-.7,0-1,.2-.2.2-.4.4-.5.7s-.2.7-.2,1.2v.2c0,.8.1,1.4.4,1.9.2.4.7.6,1.3.6s.8-.2,1.1-.7c.3-.4.4-1.1.4-1.9s-.1-1.4-.4-1.8-.7-.6-1.1-.6Z" fill="#333"/>
    <path d="M239.7,216.5c.8,0,1.4.1,2,.4s1,.7,1.3,1.3c.3.6.5,1.3.5,2.1v1.1h-5.4c0,.6.2,1.1.6,1.5.4.4.9.5,1.5.5s1,0,1.5-.2c.4-.1.9-.3,1.4-.5v1.8c-.4.2-.8.4-1.3.4-.5,0-1,.1-1.6.1s-1.6-.2-2.2-.5c-.6-.3-1.2-.8-1.5-1.4-.4-.6-.5-1.4-.5-2.4s.2-1.8.5-2.4c.3-.7.8-1.1,1.4-1.5.6-.3,1.3-.5,2.1-.5ZM239.7,218.2c-.4,0-.8.1-1.1.4-.3.3-.5.7-.5,1.3h3.2c0-.3,0-.6-.2-.9-.1-.3-.3-.5-.5-.6-.2-.2-.5-.2-.9-.2Z" fill="#333"/>
    <path d="M250.1,216.5c.9,0,1.6.2,2.2.7.5.5.8,1.3.8,2.3v5.5h-2.3v-4.9c0-.6-.1-1-.3-1.4-.2-.3-.6-.5-1-.5-.7,0-1.2.2-1.4.7-.3.5-.4,1.2-.4,2v3.9h-2.3v-8.4h1.7l.3,1.1h.1c.2-.3.4-.5.7-.7.3-.2.6-.3.9-.4.3,0,.7-.1,1-.1Z" fill="#333"/>
    <path d="M256.3,221.4v-.6c0-.3,0-.6.1-.9s.2-.5.5-.7c.2-.2.5-.5.8-.7.3-.2.6-.4.7-.6.2-.2.3-.3.4-.5,0-.2.1-.4.1-.6,0-.3-.1-.6-.4-.7s-.6-.3-1-.3-.9,0-1.3.2-.8.3-1.3.5l-.8-1.6c.5-.3,1-.5,1.6-.7.6-.2,1.2-.3,1.9-.3,1.1,0,1.9.3,2.5.8s.9,1.2.9,1.9,0,.8-.2,1.1c-.1.3-.3.6-.6.9s-.6.5-1,.8c-.3.2-.5.4-.7.6-.2.1-.3.3-.3.4,0,.1,0,.3,0,.5v.4h-2ZM256,224c0-.5.1-.8.4-1s.6-.3.9-.3.7,0,.9.3c.3.2.4.5.4,1s-.1.8-.4,1c-.3.2-.6.3-.9.3s-.7,0-.9-.3c-.3-.2-.4-.5-.4-1Z" fill="#333"/>
  </g>
  <g>
    <path d="M385,157l-2.8,10.9h-2.6l-1.5-5.7c0-.1,0-.3-.1-.5s-.1-.5-.2-.7c0-.3-.1-.5-.1-.8,0-.2,0-.4,0-.6,0,.1,0,.3,0,.6,0,.2,0,.5-.1.7,0,.3-.1.5-.2.7s0,.4-.1.5l-1.5,5.7h-2.6l-2.8-10.9h2.3l1.4,6c0,.2,0,.4.1.6,0,.2.1.5.2.8,0,.3,0,.5.1.8,0,.3,0,.5,0,.7,0-.2,0-.4,0-.7s0-.5.1-.8c0-.3,0-.5.1-.7,0-.2,0-.4.1-.5l1.6-6.1h2.2l1.6,6.1c0,.1,0,.3.1.5,0,.2,0,.5.1.7,0,.3,0,.5.1.8,0,.3,0,.5,0,.7,0-.2,0-.6.1-.9,0-.4.1-.7.2-1.1,0-.4.1-.7.2-.9l1.4-6h2.3Z" fill="#333"/>
    <path d="M387.3,156.3c.3,0,.6,0,.9.2.2.2.4.5.4.9s-.1.7-.4.9c-.2.2-.5.2-.9.2s-.6,0-.9-.2-.4-.5-.4-.9.1-.7.4-.9.5-.2.9-.2ZM388.5,159.5v8.4h-2.3v-8.4h2.3Z" fill="#333"/>
    <path d="M394.3,159.4c.8,0,1.4.1,2,.4.6.3,1,.7,1.3,1.3.3.6.5,1.3.5,2.1v1.1h-5.4c0,.6.2,1.1.6,1.5s.9.5,1.5.5,1,0,1.5-.2c.4-.1.9-.3,1.4-.5v1.8c-.4.2-.8.4-1.3.4-.5,0-1,.1-1.6.1s-1.6-.2-2.2-.5c-.6-.3-1.2-.8-1.5-1.4-.4-.6-.5-1.4-.5-2.4s.2-1.8.5-2.4c.3-.7.8-1.1,1.4-1.5.6-.3,1.3-.5,2.1-.5ZM394.3,161c-.4,0-.8.1-1.1.4s-.5.7-.5,1.3h3.2c0-.3,0-.6-.2-.9-.1-.3-.3-.5-.5-.6-.2-.2-.5-.2-.9-.2Z" fill="#333"/>
    <path d="M409.7,165.4c0,.6-.1,1-.4,1.4-.3.4-.7.7-1.2.9s-1.2.3-2,.3-1.1,0-1.5-.1c-.4,0-.8-.2-1.3-.4v-1.9c.5.2.9.4,1.5.5.5.1,1,.2,1.4.2s.8,0,1-.2c.2-.1.3-.3.3-.5s0-.3-.1-.4c0-.1-.2-.2-.5-.4-.3-.1-.7-.3-1.2-.6-.5-.2-1-.4-1.3-.7-.3-.2-.6-.5-.7-.8-.2-.3-.2-.7-.2-1.2,0-.8.3-1.4.9-1.7.6-.4,1.4-.6,2.4-.6s1,0,1.5.2c.5.1,1,.3,1.5.5l-.7,1.6c-.4-.2-.8-.3-1.2-.4-.4-.1-.7-.2-1.1-.2s-.6,0-.8.1c-.2,0-.3.2-.3.4s0,.3.1.4c0,.1.3.2.5.3.3.1.6.3,1.1.5.5.2.9.4,1.2.6.3.2.6.5.8.8s.3.7.3,1.2Z" fill="#333"/>
    <path d="M419.1,163.7c0,.7,0,1.3-.3,1.9-.2.5-.5,1-.8,1.4s-.8.7-1.3.8-1.1.3-1.7.3-1.1,0-1.6-.3-.9-.5-1.3-.8c-.4-.4-.6-.8-.8-1.4-.2-.5-.3-1.2-.3-1.9s.2-1.7.5-2.4c.3-.6.8-1.1,1.4-1.5.6-.3,1.3-.5,2.2-.5s1.5.2,2.1.5c.6.3,1.1.8,1.4,1.5.3.6.5,1.4.5,2.4ZM413.3,163.7c0,.5,0,1,.2,1.4.1.4.3.7.6.8.3.2.6.3,1,.3s.7,0,1-.3.4-.5.6-.8c.1-.4.2-.8.2-1.4s0-1-.2-1.4-.3-.6-.6-.8c-.3-.2-.6-.3-1-.3-.6,0-1,.2-1.3.6-.3.4-.4,1-.4,1.9Z" fill="#333"/>
    <path d="M423.3,167.9h-2.3v-11.6h2.3v11.6Z" fill="#333"/>
    <path d="M428,167.9h-2.3v-11.6h2.3v11.6Z" fill="#333"/>
    <path d="M435.5,156.3c.3,0,.6,0,.9.2.2.2.4.5.4.9s-.1.7-.4.9c-.2.2-.5.2-.9.2s-.6,0-.9-.2-.4-.5-.4-.9.1-.7.4-.9.5-.2.9-.2ZM436.6,159.5v8.4h-2.3v-8.4h2.3Z" fill="#333"/>
    <path d="M442.4,168.1c-.8,0-1.5-.2-2.1-.5-.6-.3-1-.8-1.3-1.4-.3-.6-.5-1.4-.5-2.4s.2-1.9.5-2.5.8-1.1,1.4-1.4,1.3-.5,2.1-.5,1.1,0,1.5.2c.4.1.8.2,1.1.4l-.7,1.8c-.4-.1-.7-.3-1-.4s-.6-.1-.9-.1-.7,0-1,.3-.5.5-.6.8c-.1.4-.2.8-.2,1.4s0,1,.2,1.4.3.6.6.8c.3.2.6.3,1,.3s.9,0,1.3-.2c.4-.1.7-.3,1.1-.5v2c-.3.2-.7.4-1.1.5-.4,0-.9.1-1.4.1Z" fill="#333"/>
    <path d="M449.2,156.3v2.4c0,.4,0,.8,0,1.2,0,.4,0,.6,0,.8h.1c.2-.3.4-.5.6-.7s.5-.3.8-.4c.3,0,.6-.1,1-.1.6,0,1.1.1,1.6.3s.8.5,1,1c.2.5.4,1,.4,1.8v5.5h-2.3v-4.9c0-.6-.1-1.1-.3-1.4s-.6-.5-1-.5-.8.1-1.1.3-.5.5-.6.9c-.1.4-.2.9-.2,1.5v3.9h-2.3v-11.6h2.3Z" fill="#333"/>
    <path d="M374.8,177.8c1.1,0,2,.2,2.6.7.6.5.9,1.2.9,2.2v5.6h-1.6l-.4-1.1h0c-.2.3-.5.5-.7.7-.2.2-.5.3-.9.4s-.7.1-1.2.1-.9,0-1.3-.3-.7-.5-.9-.9c-.2-.4-.3-.9-.3-1.5,0-.9.3-1.5.9-2,.6-.4,1.6-.7,2.8-.7h1.5v-.4c0-.4-.1-.8-.3-1-.2-.2-.5-.3-1-.3s-.8,0-1.2.2c-.4.1-.8.3-1.2.4l-.8-1.5c.4-.2.9-.4,1.5-.6.6-.1,1.1-.2,1.7-.2ZM376,182.4h-.9c-.7,0-1.3.2-1.5.4-.3.2-.4.6-.4,1s.1.6.3.7c.2.1.5.2.8.2.5,0,.9-.1,1.2-.4.3-.3.5-.7.5-1.2v-.7Z" fill="#333"/>
    <path d="M388.3,177.9v8.4h-1.8l-.3-1.1h-.1c-.2.3-.4.5-.7.7s-.6.3-.9.4-.7.1-1,.1c-.6,0-1.1-.1-1.6-.3-.4-.2-.8-.5-1-1-.2-.4-.4-1-.4-1.8v-5.5h2.3v4.9c0,.6.1,1.1.3,1.4.2.3.6.5,1,.5s.8-.1,1.1-.3c.3-.2.5-.5.6-.9s.2-.9.2-1.5v-3.9h2.3Z" fill="#333"/>
    <path d="M396.5,183.8c0,.6-.1,1-.4,1.4s-.7.7-1.2.9-1.2.3-2,.3-1.1,0-1.5-.1c-.4,0-.8-.2-1.3-.4v-1.9c.5.2.9.4,1.5.5.5.1,1,.2,1.4.2s.8,0,1-.2c.2-.1.3-.3.3-.5s0-.3-.1-.4-.2-.2-.5-.4c-.3-.1-.7-.3-1.2-.6-.5-.2-1-.4-1.3-.7s-.6-.5-.7-.8-.2-.7-.2-1.2c0-.8.3-1.4.9-1.7.6-.4,1.4-.6,2.4-.6s1,0,1.5.2,1,.3,1.5.5l-.7,1.6c-.4-.2-.8-.3-1.2-.4-.4-.1-.7-.2-1.1-.2s-.6,0-.8.1c-.2,0-.3.2-.3.4s0,.3.1.4c0,.1.3.2.5.3s.6.3,1.1.5c.5.2.9.4,1.2.6.3.2.6.5.8.8s.3.7.3,1.2Z" fill="#333"/>
    <path d="M404.2,183.8c0,.6-.1,1-.4,1.4s-.7.7-1.2.9-1.2.3-2,.3-1.1,0-1.5-.1c-.4,0-.8-.2-1.3-.4v-1.9c.5.2.9.4,1.5.5.5.1,1,.2,1.4.2s.8,0,1-.2c.2-.1.3-.3.3-.5s0-.3-.1-.4-.2-.2-.5-.4c-.3-.1-.7-.3-1.2-.6-.5-.2-1-.4-1.3-.7s-.6-.5-.7-.8-.2-.7-.2-1.2c0-.8.3-1.4.9-1.7.6-.4,1.4-.6,2.4-.6s1,0,1.5.2,1,.3,1.5.5l-.7,1.6c-.4-.2-.8-.3-1.2-.4-.4-.1-.7-.2-1.1-.2s-.6,0-.8.1c-.2,0-.3.2-.3.4s0,.3.1.4c0,.1.3.2.5.3s.6.3,1.1.5c.5.2.9.4,1.2.6.3.2.6.5.8.8s.3.7.3,1.2Z" fill="#333"/>
    <path d="M409.4,177.8c.8,0,1.4.1,2,.4s1,.7,1.3,1.3c.3.6.5,1.3.5,2.1v1.1h-5.4c0,.6.2,1.1.6,1.5.4.4.9.5,1.5.5s1,0,1.5-.2c.4-.1.9-.3,1.4-.5v1.8c-.4.2-.8.4-1.3.4-.5,0-1,.1-1.6.1s-1.6-.2-2.2-.5c-.6-.3-1.2-.8-1.5-1.4-.4-.6-.5-1.4-.5-2.4s.2-1.8.5-2.4c.3-.7.8-1.1,1.4-1.5.6-.3,1.3-.5,2.1-.5ZM409.4,179.4c-.4,0-.8.1-1.1.4-.3.3-.5.7-.5,1.3h3.2c0-.3,0-.6-.2-.9-.1-.3-.3-.5-.5-.6-.2-.2-.5-.2-.9-.2Z" fill="#333"/>
    <path d="M417.3,174.6v2.4c0,.4,0,.8,0,1.2,0,.4,0,.6,0,.8h.1c.2-.3.4-.5.6-.7.2-.2.5-.3.8-.4.3,0,.6-.1,1-.1.6,0,1.1.1,1.6.3s.8.5,1,1c.2.5.4,1,.4,1.8v5.5h-2.3v-4.9c0-.6-.1-1-.3-1.4-.2-.3-.6-.5-1-.5s-.8.1-1.1.3-.5.5-.6.9c-.1.4-.2.9-.2,1.5v3.9h-2.3v-11.6h2.3Z" fill="#333"/>
    <path d="M428.5,177.8c.8,0,1.4.1,2,.4s1,.7,1.3,1.3c.3.6.5,1.3.5,2.1v1.1h-5.4c0,.6.2,1.1.6,1.5.4.4.9.5,1.5.5s1,0,1.5-.2c.4-.1.9-.3,1.4-.5v1.8c-.4.2-.8.4-1.3.4-.5,0-1,.1-1.6.1s-1.6-.2-2.2-.5c-.6-.3-1.2-.8-1.5-1.4-.4-.6-.5-1.4-.5-2.4s.2-1.8.5-2.4c.3-.7.8-1.1,1.4-1.5.6-.3,1.3-.5,2.1-.5ZM428.5,179.4c-.4,0-.8.1-1.1.4-.3.3-.5.7-.5,1.3h3.2c0-.3,0-.6-.2-.9-.1-.3-.3-.5-.5-.6-.2-.2-.5-.2-.9-.2Z" fill="#333"/>
    <path d="M438.9,177.8c.9,0,1.6.2,2.2.7.5.5.8,1.3.8,2.3v5.5h-2.3v-4.9c0-.6-.1-1-.3-1.4-.2-.3-.6-.5-1-.5-.7,0-1.2.2-1.4.7-.3.5-.4,1.2-.4,2v3.9h-2.3v-8.4h1.7l.3,1.1h.1c.2-.3.4-.5.7-.7.3-.2.6-.3.9-.4.3,0,.7-.1,1-.1Z" fill="#333"/>
    <path d="M445.1,182.7v-.6c0-.3,0-.6.1-.9s.2-.5.5-.7c.2-.2.5-.5.8-.7.3-.2.6-.4.7-.6.2-.2.3-.3.4-.5,0-.2.1-.4.1-.6,0-.3-.1-.6-.4-.7-.2-.2-.6-.3-1-.3s-.9,0-1.3.2c-.4.1-.8.3-1.3.5l-.8-1.6c.5-.3,1-.5,1.6-.7.6-.2,1.2-.3,1.9-.3,1.1,0,1.9.3,2.5.8s.9,1.2.9,1.9,0,.8-.2,1.1c-.1.3-.3.6-.6.9s-.6.5-1,.8c-.3.2-.5.4-.7.6-.2.1-.3.3-.3.4,0,.1,0,.3,0,.5v.4h-2ZM444.8,185.2c0-.5.1-.8.4-1s.6-.3.9-.3.7,0,.9.3c.3.2.4.5.4,1s-.1.8-.4,1c-.3.2-.6.3-.9.3s-.7,0-.9-.3c-.3-.2-.4-.5-.4-1Z" fill="#333"/>
  </g>
  <g>
    <path d="M571.7,209.7l-2.8,10.9h-2.6l-1.5-5.7c0-.1,0-.3-.1-.5,0-.2-.1-.5-.2-.7s-.1-.5-.1-.8c0-.2,0-.4,0-.6,0,.1,0,.3,0,.6,0,.2,0,.5-.1.7,0,.3-.1.5-.2.7s0,.4-.1.5l-1.5,5.7h-2.6l-2.8-10.9h2.3l1.4,6c0,.2,0,.4.1.6,0,.2.1.5.2.8,0,.3,0,.5.1.8,0,.3,0,.5,0,.7,0-.2,0-.4,0-.7s0-.5.1-.8c0-.3,0-.5.1-.7s0-.4.1-.5l1.6-6.1h2.2l1.6,6.1c0,.1,0,.3.1.5,0,.2,0,.5.1.7,0,.3,0,.5.1.8s0,.5,0,.7c0-.2,0-.6.1-.9s.1-.7.2-1.1c0-.4.1-.7.2-.9l1.4-6h2.3Z" fill="#333"/>
    <path d="M574.1,209c.3,0,.6,0,.9.2.2.2.4.5.4.9s-.1.7-.4.9c-.2.2-.5.2-.9.2s-.6,0-.9-.2-.4-.5-.4-.9.1-.7.4-.9.5-.2.9-.2ZM575.2,212.3v8.4h-2.3v-8.4h2.3Z" fill="#333"/>
    <path d="M581.1,212.1c.8,0,1.4.1,2,.4s1,.7,1.3,1.3c.3.6.5,1.3.5,2.1v1.1h-5.4c0,.6.2,1.1.6,1.5.4.4.9.5,1.5.5s1,0,1.5-.2c.4-.1.9-.3,1.4-.5v1.8c-.4.2-.8.4-1.3.4-.5,0-1,.1-1.6.1s-1.6-.2-2.2-.5c-.6-.3-1.2-.8-1.5-1.4-.4-.6-.5-1.4-.5-2.4s.2-1.8.5-2.4c.3-.7.8-1.1,1.4-1.5.6-.3,1.3-.5,2.1-.5ZM581.1,213.7c-.4,0-.8.1-1.1.4-.3.3-.5.7-.5,1.3h3.2c0-.3,0-.6-.2-.9-.1-.3-.3-.5-.5-.6-.2-.2-.5-.2-.9-.2Z" fill="#333"/>
    <path d="M597.5,220.6l-.6-2.9c0-.2,0-.4-.2-.8s-.2-.7-.3-1.1c0-.4-.2-.8-.3-1.1s-.1-.6-.2-.7h0c0,.2,0,.4-.2.7,0,.3-.2.7-.2,1.1,0,.4-.2.8-.3,1.1s-.1.6-.2.8l-.7,2.9h-2.5l-2.4-8.4h2.3l1,3.7c0,.3.1.6.2.9,0,.4.1.7.2,1,0,.3,0,.6.1.8h0c0-.1,0-.3,0-.6,0-.2,0-.5.1-.7,0-.3,0-.5.1-.7s0-.3,0-.4l1-4h2.5l1,4c0,.1,0,.4.1.7,0,.3.1.6.2,1s0,.6,0,.8h0c0-.2,0-.4.1-.8,0-.3.1-.7.2-1.1,0-.4.1-.7.2-.9l1-3.7h2.2l-2.4,8.4h-2.5Z" fill="#333"/>
    <path d="M611.4,216.4c0,.7,0,1.3-.3,1.9-.2.5-.5,1-.8,1.4-.4.4-.8.7-1.3.8s-1.1.3-1.7.3-1.1,0-1.6-.3-.9-.5-1.3-.8c-.4-.4-.6-.8-.8-1.4-.2-.5-.3-1.2-.3-1.9s.2-1.7.5-2.4c.3-.6.8-1.1,1.4-1.5.6-.3,1.3-.5,2.2-.5s1.5.2,2.1.5c.6.3,1.1.8,1.4,1.5s.5,1.4.5,2.4ZM605.6,216.4c0,.5,0,1,.2,1.4.1.4.3.7.6.8.3.2.6.3,1,.3s.7,0,1-.3.4-.5.6-.8.2-.8.2-1.4,0-1-.2-1.4c-.1-.4-.3-.6-.6-.8-.3-.2-.6-.3-1-.3-.6,0-1,.2-1.3.6-.3.4-.4,1-.4,1.9Z" fill="#333"/>
    <path d="M615.5,220.6h-2.3v-11.6h2.3v11.6Z" fill="#333"/>
    <path d="M620.2,220.6h-2.3v-11.6h2.3v11.6Z" fill="#333"/>
    <path d="M626.1,212.1c.8,0,1.4.1,2,.4s1,.7,1.3,1.3c.3.6.5,1.3.5,2.1v1.1h-5.4c0,.6.2,1.1.6,1.5.4.4.9.5,1.5.5s1,0,1.5-.2c.4-.1.9-.3,1.4-.5v1.8c-.4.2-.8.4-1.3.4-.5,0-1,.1-1.6.1s-1.6-.2-2.2-.5c-.6-.3-1.2-.8-1.5-1.4-.4-.6-.5-1.4-.5-2.4s.2-1.8.5-2.4c.3-.7.8-1.1,1.4-1.5.6-.3,1.3-.5,2.1-.5ZM626.1,213.7c-.4,0-.8.1-1.1.4-.3.3-.5.7-.5,1.3h3.2c0-.3,0-.6-.2-.9-.1-.3-.3-.5-.5-.6-.2-.2-.5-.2-.9-.2Z" fill="#333"/>
    <path d="M636.4,212.1c.9,0,1.6.2,2.2.7.5.5.8,1.3.8,2.3v5.5h-2.3v-4.9c0-.6-.1-1-.3-1.4-.2-.3-.6-.5-1-.5-.7,0-1.2.2-1.4.7-.3.5-.4,1.2-.4,2v3.9h-2.3v-8.4h1.7l.3,1.1h.1c.2-.3.4-.5.7-.7.3-.2.6-.3.9-.4.3,0,.7-.1,1-.1Z" fill="#333"/>
    <path d="M565,239l-.6-2.9c0-.2,0-.4-.2-.8s-.2-.7-.3-1.1c0-.4-.2-.8-.3-1.1s-.1-.6-.2-.7h0c0,.2,0,.4-.2.7,0,.3-.2.7-.2,1.1,0,.4-.2.8-.3,1.1s-.1.6-.2.8l-.7,2.9h-2.5l-2.4-8.4h2.3l1,3.7c0,.3.1.6.2.9,0,.4.1.7.2,1,0,.3,0,.6.1.8h0c0-.1,0-.3,0-.6,0-.2,0-.5.1-.7,0-.3,0-.5.1-.7s0-.3,0-.4l1-4h2.5l1,4c0,.1,0,.4.1.7,0,.3.1.6.2,1s0,.6,0,.8h0c0-.2,0-.4.1-.8,0-.3.1-.7.2-1.1,0-.4.1-.7.2-.9l1-3.7h2.2l-2.4,8.4h-2.5Z" fill="#333"/>
    <path d="M572.4,227.4c.3,0,.6,0,.9.2.2.2.4.5.4.9s-.1.7-.4.9c-.2.2-.5.2-.9.2s-.6,0-.9-.2-.4-.5-.4-.9.1-.7.4-.9.5-.2.9-.2ZM573.5,230.7v8.4h-2.3v-8.4h2.3Z" fill="#333"/>
    <path d="M580.6,230.5c.1,0,.2,0,.4,0,.2,0,.3,0,.4,0l-.2,2.1c0,0-.2,0-.3,0-.1,0-.3,0-.4,0-.3,0-.6,0-.9.1-.3,0-.5.2-.7.4-.2.2-.4.4-.5.7-.1.3-.2.6-.2,1v4.3h-2.3v-8.4h1.7l.3,1.4h.1c.2-.3.4-.5.6-.8.2-.2.5-.4.8-.6.3-.1.7-.2,1-.2Z" fill="#333"/>
    <path d="M594.5,230.7v8.4h-1.8l-.3-1.1h-.1c-.2.3-.4.5-.7.7s-.6.3-.9.4-.7.1-1,.1c-.6,0-1.1-.1-1.6-.3-.4-.2-.8-.5-1-1-.2-.4-.4-1-.4-1.8v-5.5h2.3v4.9c0,.6.1,1.1.3,1.4.2.3.6.5,1,.5s.8-.1,1.1-.3c.3-.2.5-.5.6-.9s.2-.9.2-1.5v-3.9h2.3Z" fill="#333"/>
    <path d="M601.7,230.5c.9,0,1.6.2,2.2.7.5.5.8,1.3.8,2.3v5.5h-2.3v-4.9c0-.6-.1-1-.3-1.4-.2-.3-.6-.5-1-.5-.7,0-1.2.2-1.4.7-.3.5-.4,1.2-.4,2v3.9h-2.3v-8.4h1.7l.3,1.1h.1c.2-.3.4-.5.7-.7.3-.2.6-.3.9-.4.3,0,.7-.1,1-.1Z" fill="#333"/>
    <path d="M612.8,236.5c0,.6-.1,1-.4,1.4s-.7.7-1.2.9-1.2.3-2,.3-1.1,0-1.5-.1c-.4,0-.8-.2-1.3-.4v-1.9c.5.2.9.4,1.5.5.5.1,1,.2,1.4.2s.8,0,1-.2c.2-.1.3-.3.3-.5s0-.3-.1-.4-.2-.2-.5-.4c-.3-.1-.7-.3-1.2-.6-.5-.2-1-.4-1.3-.7s-.6-.5-.7-.8-.2-.7-.2-1.2c0-.8.3-1.4.9-1.7.6-.4,1.4-.6,2.4-.6s1,0,1.5.2,1,.3,1.5.5l-.7,1.6c-.4-.2-.8-.3-1.2-.4-.4-.1-.7-.2-1.1-.2s-.6,0-.8.1c-.2,0-.3.2-.3.4s0,.3.1.4c0,.1.3.2.5.3s.6.3,1.1.5c.5.2.9.4,1.2.6.3.2.6.5.8.8s.3.7.3,1.2Z" fill="#333"/>
    <path d="M622,230.5c1.1,0,2,.2,2.6.7.6.5.9,1.2.9,2.2v5.6h-1.6l-.4-1.1h0c-.2.3-.5.5-.7.7-.2.2-.5.3-.9.4s-.7.1-1.2.1-.9,0-1.3-.3-.7-.5-.9-.9c-.2-.4-.3-.9-.3-1.5,0-.9.3-1.5.9-2,.6-.4,1.6-.7,2.8-.7h1.5v-.4c0-.4-.1-.8-.3-1-.2-.2-.5-.3-1-.3s-.8,0-1.2.2c-.4.1-.8.3-1.2.4l-.8-1.5c.4-.2.9-.4,1.5-.6.6-.1,1.1-.2,1.7-.2ZM623.2,235.2h-.9c-.7,0-1.3.2-1.5.4-.3.2-.4.6-.4,1s.1.6.3.7c.2.1.5.2.8.2.5,0,.9-.1,1.2-.4.3-.3.5-.7.5-1.2v-.7Z" fill="#333"/>
    <path d="M635.5,230.7v8.4h-1.8l-.3-1.1h-.1c-.2.3-.4.5-.7.7s-.6.3-.9.4-.7.1-1,.1c-.6,0-1.1-.1-1.6-.3-.4-.2-.8-.5-1-1-.2-.4-.4-1-.4-1.8v-5.5h2.3v4.9c0,.6.1,1.1.3,1.4.2.3.6.5,1,.5s.8-.1,1.1-.3c.3-.2.5-.5.6-.9s.2-.9.2-1.5v-3.9h2.3Z" fill="#333"/>
    <path d="M643.8,236.5c0,.6-.1,1-.4,1.4s-.7.7-1.2.9-1.2.3-2,.3-1.1,0-1.5-.1c-.4,0-.8-.2-1.3-.4v-1.9c.5.2.9.4,1.5.5.5.1,1,.2,1.4.2s.8,0,1-.2c.2-.1.3-.3.3-.5s0-.3-.1-.4-.2-.2-.5-.4c-.3-.1-.7-.3-1.2-.6-.5-.2-1-.4-1.3-.7s-.6-.5-.7-.8-.2-.7-.2-1.2c0-.8.3-1.4.9-1.7.6-.4,1.4-.6,2.4-.6s1,0,1.5.2,1,.3,1.5.5l-.7,1.6c-.4-.2-.8-.3-1.2-.4-.4-.1-.7-.2-1.1-.2s-.6,0-.8.1c-.2,0-.3.2-.3.4s0,.3.1.4c0,.1.3.2.5.3s.6.3,1.1.5c.5.2.9.4,1.2.6.3.2.6.5.8.8s.3.7.3,1.2Z" fill="#333"/>
    <path d="M644.8,235.9v-1.9h4v1.9h-4Z" fill="#333"/>
    <path d="M561.6,255.7c.2,0,.5,0,.7,0,.2,0,.5-.1.7-.2v1.7c-.2.1-.5.2-.9.3-.4,0-.8.1-1.2.1s-.9,0-1.3-.2-.7-.4-.9-.8c-.2-.4-.3-1-.3-1.7v-4h-1.1v-1l1.3-.8.7-1.8h1.5v1.8h2.3v1.7h-2.3v4c0,.3,0,.6.3.7.2.2.4.2.7.2Z" fill="#333"/>
    <path d="M568.2,248.9c1.1,0,2,.2,2.6.7.6.5.9,1.2.9,2.2v5.6h-1.6l-.4-1.1h0c-.2.3-.5.5-.7.7-.2.2-.5.3-.9.4s-.7.1-1.2.1-.9,0-1.3-.3-.7-.5-.9-.9c-.2-.4-.3-.9-.3-1.5,0-.9.3-1.5.9-2,.6-.4,1.6-.7,2.8-.7h1.5v-.4c0-.4-.1-.8-.3-1-.2-.2-.5-.3-1-.3s-.8,0-1.2.2c-.4.1-.8.3-1.2.4l-.8-1.5c.4-.2.9-.4,1.5-.6.6-.1,1.1-.2,1.7-.2ZM569.4,253.5h-.9c-.7,0-1.3.2-1.5.4-.3.2-.4.6-.4,1s.1.6.3.7c.2.1.5.2.8.2.5,0,.9-.1,1.2-.4.3-.3.5-.7.5-1.2v-.7Z" fill="#333"/>
    <path d="M581.7,249.1v8.4h-1.8l-.3-1.1h-.1c-.2.3-.4.5-.7.7s-.6.3-.9.4-.7.1-1,.1c-.6,0-1.1-.1-1.6-.3-.4-.2-.8-.5-1-1-.2-.4-.4-1-.4-1.8v-5.5h2.3v4.9c0,.6.1,1.1.3,1.4.2.3.6.5,1,.5s.8-.1,1.1-.3c.3-.2.5-.5.6-.9s.2-.9.2-1.5v-3.9h2.3Z" fill="#333"/>
    <path d="M589.9,254.9c0,.6-.1,1-.4,1.4s-.7.7-1.2.9-1.2.3-2,.3-1.1,0-1.5-.1c-.4,0-.8-.2-1.3-.4v-1.9c.5.2.9.4,1.5.5.5.1,1,.2,1.4.2s.8,0,1-.2c.2-.1.3-.3.3-.5s0-.3-.1-.4-.2-.2-.5-.4c-.3-.1-.7-.3-1.2-.6-.5-.2-1-.4-1.3-.7s-.6-.5-.7-.8-.2-.7-.2-1.2c0-.8.3-1.4.9-1.7.6-.4,1.4-.6,2.4-.6s1,0,1.5.2,1,.3,1.5.5l-.7,1.6c-.4-.2-.8-.3-1.2-.4-.4-.1-.7-.2-1.1-.2s-.6,0-.8.1c-.2,0-.3.2-.3.4s0,.3.1.4c0,.1.3.2.5.3s.6.3,1.1.5c.5.2.9.4,1.2.6.3.2.6.5.8.8s.3.7.3,1.2Z" fill="#333"/>
    <path d="M595.1,257.6c-.8,0-1.5-.2-2.1-.5s-1-.8-1.3-1.4c-.3-.6-.5-1.4-.5-2.4s.2-1.9.5-2.5c.3-.6.8-1.1,1.4-1.4.6-.3,1.3-.5,2.1-.5s1.1,0,1.5.2c.4.1.8.2,1.1.4l-.7,1.8c-.4-.1-.7-.3-1-.4-.3,0-.6-.1-.9-.1s-.7,0-1,.3c-.3.2-.5.5-.6.8s-.2.8-.2,1.4,0,1,.2,1.4c.1.4.3.6.6.8s.6.3,1,.3.9,0,1.3-.2c.4-.1.7-.3,1.1-.5v2c-.3.2-.7.4-1.1.5-.4,0-.9.1-1.4.1Z" fill="#333"/>
    <path d="M601.9,245.8v2.4c0,.4,0,.8,0,1.2,0,.4,0,.6,0,.8h.1c.2-.3.4-.5.6-.7.2-.2.5-.3.8-.4.3,0,.6-.1,1-.1.6,0,1.1.1,1.6.3s.8.5,1,1c.2.5.4,1,.4,1.8v5.5h-2.3v-4.9c0-.6-.1-1-.3-1.4-.2-.3-.6-.5-1-.5s-.8.1-1.1.3-.5.5-.6.9c-.1.4-.2.9-.2,1.5v3.9h-2.3v-11.6h2.3Z" fill="#333"/>
    <path d="M613.1,248.9c.8,0,1.4.1,2,.4s1,.7,1.3,1.3c.3.6.5,1.3.5,2.1v1.1h-5.4c0,.6.2,1.1.6,1.5.4.4.9.5,1.5.5s1,0,1.5-.2c.4-.1.9-.3,1.4-.5v1.8c-.4.2-.8.4-1.3.4-.5,0-1,.1-1.6.1s-1.6-.2-2.2-.5c-.6-.3-1.2-.8-1.5-1.4-.4-.6-.5-1.4-.5-2.4s.2-1.8.5-2.4c.3-.7.8-1.1,1.4-1.5.6-.3,1.3-.5,2.1-.5ZM613.1,250.5c-.4,0-.8.1-1.1.4-.3.3-.5.7-.5,1.3h3.2c0-.3,0-.6-.2-.9-.1-.3-.3-.5-.5-.6-.2-.2-.5-.2-.9-.2Z" fill="#333"/>
    <path d="M623.5,248.9c.9,0,1.6.2,2.2.7.5.5.8,1.3.8,2.3v5.5h-2.3v-4.9c0-.6-.1-1-.3-1.4-.2-.3-.6-.5-1-.5-.7,0-1.2.2-1.4.7-.3.5-.4,1.2-.4,2v3.9h-2.3v-8.4h1.7l.3,1.1h.1c.2-.3.4-.5.7-.7.3-.2.6-.3.9-.4.3,0,.7-.1,1-.1Z" fill="#333"/>
    <path d="M629.7,253.8v-.6c0-.3,0-.6.1-.9s.2-.5.5-.7c.2-.2.5-.5.8-.7.3-.2.6-.4.7-.6.2-.2.3-.3.4-.5,0-.2.1-.4.1-.6,0-.3-.1-.6-.4-.7s-.6-.3-1-.3-.9,0-1.3.2-.8.3-1.3.5l-.8-1.6c.5-.3,1-.5,1.6-.7.6-.2,1.2-.3,1.9-.3,1.1,0,1.9.3,2.5.8s.9,1.2.9,1.9,0,.8-.2,1.1c-.1.3-.3.6-.6.9s-.6.5-1,.8c-.3.2-.5.4-.7.6-.2.1-.3.3-.3.4,0,.1,0,.3,0,.5v.4h-2ZM629.4,256.3c0-.5.1-.8.4-1s.6-.3.9-.3.7,0,.9.3c.3.2.4.5.4,1s-.1.8-.4,1c-.3.2-.6.3-.9.3s-.7,0-.9-.3c-.3-.2-.4-.5-.4-1Z" fill="#333"/>
  </g>
  <g>
    <path d="M383.1,454.9l-2.8,10.9h-2.6l-1.5-5.7c0-.1,0-.3-.1-.5,0-.2-.1-.5-.2-.7s-.1-.5-.1-.8c0-.2,0-.4,0-.6,0,.1,0,.3,0,.6,0,.2,0,.5-.1.7,0,.3-.1.5-.2.7s0,.4-.1.5l-1.5,5.7h-2.6l-2.8-10.9h2.3l1.4,6c0,.2,0,.4.1.6,0,.2.1.5.2.8,0,.3,0,.5.1.8,0,.3,0,.5,0,.7,0-.2,0-.4,0-.7s0-.5.1-.8c0-.3,0-.5.1-.7s0-.4.1-.5l1.6-6.1h2.2l1.6,6.1c0,.1,0,.3.1.5,0,.2,0,.5.1.7,0,.3,0,.5.1.8s0,.5,0,.7c0-.2,0-.6.1-.9s.1-.7.2-1.1c0-.4.1-.7.2-.9l1.4-6h2.3Z" fill="#333"/>
    <path d="M385.5,454.2c.3,0,.6,0,.9.2.2.2.4.5.4.9s-.1.7-.4.9c-.2.2-.5.2-.9.2s-.6,0-.9-.2-.4-.5-.4-.9.1-.7.4-.9.5-.2.9-.2ZM386.6,457.4v8.4h-2.3v-8.4h2.3Z" fill="#333"/>
    <path d="M392.5,457.3c.8,0,1.4.1,2,.4s1,.7,1.3,1.3c.3.6.5,1.3.5,2.1v1.1h-5.4c0,.6.2,1.1.6,1.5.4.4.9.5,1.5.5s1,0,1.5-.2c.4-.1.9-.3,1.4-.5v1.8c-.4.2-.8.4-1.3.4-.5,0-1,.1-1.6.1s-1.6-.2-2.2-.5c-.6-.3-1.2-.8-1.5-1.4-.4-.6-.5-1.4-.5-2.4s.2-1.8.5-2.4c.3-.7.8-1.1,1.4-1.5.6-.3,1.3-.5,2.1-.5ZM392.5,458.9c-.4,0-.8.1-1.1.4-.3.3-.5.7-.5,1.3h3.2c0-.3,0-.6-.2-.9-.1-.3-.3-.5-.5-.6-.2-.2-.5-.2-.9-.2Z" fill="#333"/>
    <path d="M408.9,465.8l-.6-2.9c0-.2,0-.4-.2-.8s-.2-.7-.3-1.1c0-.4-.2-.8-.3-1.1s-.1-.6-.2-.7h0c0,.2,0,.4-.2.7,0,.3-.2.7-.2,1.1,0,.4-.2.8-.3,1.1s-.1.6-.2.8l-.7,2.9h-2.5l-2.4-8.4h2.3l1,3.7c0,.3.1.6.2.9,0,.4.1.7.2,1,0,.3,0,.6.1.8h0c0-.1,0-.3,0-.6,0-.2,0-.5.1-.7,0-.3,0-.5.1-.7s0-.3,0-.4l1-4h2.5l1,4c0,.1,0,.4.1.7,0,.3.1.6.2,1s0,.6,0,.8h0c0-.2,0-.4.1-.8,0-.3.1-.7.2-1.1,0-.4.1-.7.2-.9l1-3.7h2.2l-2.4,8.4h-2.5Z" fill="#333"/>
    <path d="M422.8,461.6c0,.7,0,1.3-.3,1.9-.2.5-.5,1-.8,1.4-.4.4-.8.7-1.3.8s-1.1.3-1.7.3-1.1,0-1.6-.3-.9-.5-1.3-.8c-.4-.4-.6-.8-.8-1.4-.2-.5-.3-1.2-.3-1.9s.2-1.7.5-2.4c.3-.6.8-1.1,1.4-1.5.6-.3,1.3-.5,2.2-.5s1.5.2,2.1.5c.6.3,1.1.8,1.4,1.5s.5,1.4.5,2.4ZM417,461.6c0,.5,0,1,.2,1.4.1.4.3.7.6.8.3.2.6.3,1,.3s.7,0,1-.3.4-.5.6-.8.2-.8.2-1.4,0-1-.2-1.4c-.1-.4-.3-.6-.6-.8-.3-.2-.6-.3-1-.3-.6,0-1,.2-1.3.6-.3.4-.4,1-.4,1.9Z" fill="#333"/>
    <path d="M426.9,465.8h-2.3v-11.6h2.3v11.6Z" fill="#333"/>
    <path d="M431.6,465.8h-2.3v-11.6h2.3v11.6Z" fill="#333"/>
    <path d="M437.4,457.3c.8,0,1.4.1,2,.4s1,.7,1.3,1.3c.3.6.5,1.3.5,2.1v1.1h-5.4c0,.6.2,1.1.6,1.5.4.4.9.5,1.5.5s1,0,1.5-.2c.4-.1.9-.3,1.4-.5v1.8c-.4.2-.8.4-1.3.4-.5,0-1,.1-1.6.1s-1.6-.2-2.2-.5c-.6-.3-1.2-.8-1.5-1.4-.4-.6-.5-1.4-.5-2.4s.2-1.8.5-2.4c.3-.7.8-1.1,1.4-1.5.6-.3,1.3-.5,2.1-.5ZM437.5,458.9c-.4,0-.8.1-1.1.4-.3.3-.5.7-.5,1.3h3.2c0-.3,0-.6-.2-.9-.1-.3-.3-.5-.5-.6-.2-.2-.5-.2-.9-.2Z" fill="#333"/>
    <path d="M447.8,457.3c.9,0,1.6.2,2.2.7.5.5.8,1.3.8,2.3v5.5h-2.3v-4.9c0-.6-.1-1-.3-1.4-.2-.3-.6-.5-1-.5-.7,0-1.2.2-1.4.7-.3.5-.4,1.2-.4,2v3.9h-2.3v-8.4h1.7l.3,1.1h.1c.2-.3.4-.5.7-.7.3-.2.6-.3.9-.4.3,0,.7-.1,1-.1Z" fill="#333"/>
    <path d="M464,465.8l-.6-2.9c0-.2,0-.4-.2-.8s-.2-.7-.3-1.1c0-.4-.2-.8-.3-1.1s-.1-.6-.2-.7h0c0,.2,0,.4-.2.7,0,.3-.2.7-.2,1.1,0,.4-.2.8-.3,1.1s-.1.6-.2.8l-.7,2.9h-2.5l-2.4-8.4h2.3l1,3.7c0,.3.1.6.2.9,0,.4.1.7.2,1,0,.3,0,.6.1.8h0c0-.1,0-.3,0-.6,0-.2,0-.5.1-.7,0-.3,0-.5.1-.7s0-.3,0-.4l1-4h2.5l1,4c0,.1,0,.4.1.7,0,.3.1.6.2,1s0,.6,0,.8h0c0-.2,0-.4.1-.8,0-.3.1-.7.2-1.1,0-.4.1-.7.2-.9l1-3.7h2.2l-2.4,8.4h-2.5Z" fill="#333"/>
    <path d="M471.4,454.2c.3,0,.6,0,.9.2.2.2.4.5.4.9s-.1.7-.4.9c-.2.2-.5.2-.9.2s-.6,0-.9-.2-.4-.5-.4-.9.1-.7.4-.9.5-.2.9-.2ZM472.5,457.4v8.4h-2.3v-8.4h2.3Z" fill="#333"/>
    <path d="M479.6,457.3c.1,0,.2,0,.4,0,.2,0,.3,0,.4,0l-.2,2.1c0,0-.2,0-.3,0-.1,0-.3,0-.4,0-.3,0-.6,0-.9.1-.3,0-.5.2-.7.4-.2.2-.4.4-.5.7-.1.3-.2.6-.2,1v4.3h-2.3v-8.4h1.7l.3,1.4h.1c.2-.3.4-.5.6-.8.2-.2.5-.4.8-.6.3-.1.7-.2,1-.2Z" fill="#333"/>
    <path d="M375.3,484.2h-6.6v-1.3l3.9-5.3h-3.6v-1.7h6.2v1.5l-3.8,5.1h3.9v1.7Z" fill="#333"/>
    <path d="M384.7,475.8v8.4h-1.8l-.3-1.1h-.1c-.2.3-.4.5-.7.7s-.6.3-.9.4-.7.1-1,.1c-.6,0-1.1-.1-1.6-.3-.4-.2-.8-.5-1-1-.2-.4-.4-1-.4-1.8v-5.5h2.3v4.9c0,.6.1,1.1.3,1.4.2.3.6.5,1,.5s.8-.1,1.1-.3c.3-.2.5-.5.6-.9s.2-.9.2-1.5v-3.9h2.3Z" fill="#333"/>
    <path d="M392.9,481.7c0,.6-.1,1-.4,1.4s-.7.7-1.2.9-1.2.3-2,.3-1.1,0-1.5-.1c-.4,0-.8-.2-1.3-.4v-1.9c.5.2.9.4,1.5.5.5.1,1,.2,1.4.2s.8,0,1-.2c.2-.1.3-.3.3-.5s0-.3-.1-.4-.2-.2-.5-.4c-.3-.1-.7-.3-1.2-.6-.5-.2-1-.4-1.3-.7s-.6-.5-.7-.8-.2-.7-.2-1.2c0-.8.3-1.4.9-1.7.6-.4,1.4-.6,2.4-.6s1,0,1.5.2,1,.3,1.5.5l-.7,1.6c-.4-.2-.8-.3-1.2-.4-.4-.1-.7-.2-1.1-.2s-.6,0-.8.1c-.2,0-.3.2-.3.4s0,.3.1.4c0,.1.3.2.5.3s.6.3,1.1.5c.5.2.9.4,1.2.6.3.2.6.5.8.8s.3.7.3,1.2Z" fill="#333"/>
    <path d="M398.1,475.6c1.1,0,2,.2,2.6.7.6.5.9,1.2.9,2.2v5.6h-1.6l-.4-1.1h0c-.2.3-.5.5-.7.7-.2.2-.5.3-.9.4s-.7.1-1.2.1-.9,0-1.3-.3-.7-.5-.9-.9c-.2-.4-.3-.9-.3-1.5,0-.9.3-1.5.9-2,.6-.4,1.6-.7,2.8-.7h1.5v-.4c0-.4-.1-.8-.3-1-.2-.2-.5-.3-1-.3s-.8,0-1.2.2c-.4.1-.8.3-1.2.4l-.8-1.5c.4-.2.9-.4,1.5-.6.6-.1,1.1-.2,1.7-.2ZM399.3,480.3h-.9c-.7,0-1.3.2-1.5.4-.3.2-.4.6-.4,1s.1.6.3.7c.2.1.5.2.8.2.5,0,.9-.1,1.2-.4.3-.3.5-.7.5-1.2v-.7Z" fill="#333"/>
    <path d="M413.8,475.7c.9,0,1.7.2,2.2.7s.7,1.3.7,2.3v5.5h-2.3v-4.9c0-.6-.1-1-.3-1.4-.2-.3-.5-.5-1-.5s-1,.2-1.3.6c-.3.4-.4,1-.4,1.9v4.2h-2.3v-4.9c0-.4,0-.7-.1-1s-.2-.5-.4-.6c-.2-.1-.4-.2-.7-.2-.4,0-.8.1-1,.3-.2.2-.4.5-.5.9-.1.4-.2.9-.2,1.5v3.9h-2.3v-8.4h1.7l.3,1.1h.1c.2-.3.4-.5.6-.7.3-.2.5-.3.8-.4.3,0,.6-.1.9-.1.6,0,1.1,0,1.6.3.4.2.8.5,1,.9h.2c.2-.4.6-.7,1.1-.9.5-.2.9-.3,1.4-.3Z" fill="#333"/>
    <path d="M428.8,475.7c.9,0,1.7.2,2.2.7s.7,1.3.7,2.3v5.5h-2.3v-4.9c0-.6-.1-1-.3-1.4-.2-.3-.5-.5-1-.5s-1,.2-1.3.6c-.3.4-.4,1-.4,1.9v4.2h-2.3v-4.9c0-.4,0-.7-.1-1s-.2-.5-.4-.6c-.2-.1-.4-.2-.7-.2-.4,0-.8.1-1,.3-.2.2-.4.5-.5.9-.1.4-.2.9-.2,1.5v3.9h-2.3v-8.4h1.7l.3,1.1h.1c.2-.3.4-.5.6-.7.3-.2.5-.3.8-.4.3,0,.6-.1.9-.1.6,0,1.1,0,1.6.3.4.2.8.5,1,.9h.2c.2-.4.6-.7,1.1-.9.5-.2.9-.3,1.4-.3Z" fill="#333"/>
    <path d="M437.5,475.7c.8,0,1.4.1,2,.4s1,.7,1.3,1.3c.3.6.5,1.3.5,2.1v1.1h-5.4c0,.6.2,1.1.6,1.5.4.4.9.5,1.5.5s1,0,1.5-.2c.4-.1.9-.3,1.4-.5v1.8c-.4.2-.8.4-1.3.4-.5,0-1,.1-1.6.1s-1.6-.2-2.2-.5c-.6-.3-1.2-.8-1.5-1.4-.4-.6-.5-1.4-.5-2.4s.2-1.8.5-2.4c.3-.7.8-1.1,1.4-1.5.6-.3,1.3-.5,2.1-.5ZM437.5,477.3c-.4,0-.8.1-1.1.4-.3.3-.5.7-.5,1.3h3.2c0-.3,0-.6-.2-.9-.1-.3-.3-.5-.5-.6-.2-.2-.5-.2-.9-.2Z" fill="#333"/>
    <path d="M447.8,475.7c.9,0,1.6.2,2.2.7.5.5.8,1.3.8,2.3v5.5h-2.3v-4.9c0-.6-.1-1-.3-1.4-.2-.3-.6-.5-1-.5-.7,0-1.2.2-1.4.7-.3.5-.4,1.2-.4,2v3.9h-2.3v-8.4h1.7l.3,1.1h.1c.2-.3.4-.5.7-.7.3-.2.6-.3.9-.4.3,0,.7-.1,1-.1Z" fill="#333"/>
    <path d="M456.6,475.6c1.1,0,2,.2,2.6.7.6.5.9,1.2.9,2.2v5.6h-1.6l-.4-1.1h0c-.2.3-.5.5-.7.7-.2.2-.5.3-.9.4s-.7.1-1.2.1-.9,0-1.3-.3-.7-.5-.9-.9c-.2-.4-.3-.9-.3-1.5,0-.9.3-1.5.9-2,.6-.4,1.6-.7,2.8-.7h1.5v-.4c0-.4-.1-.8-.3-1-.2-.2-.5-.3-1-.3s-.8,0-1.2.2c-.4.1-.8.3-1.2.4l-.8-1.5c.4-.2.9-.4,1.5-.6.6-.1,1.1-.2,1.7-.2ZM457.8,480.3h-.9c-.7,0-1.3.2-1.5.4-.3.2-.4.6-.4,1s.1.6.3.7c.2.1.5.2.8.2.5,0,.9-.1,1.2-.4.3-.3.5-.7.5-1.2v-.7Z" fill="#333"/>
    <path d="M467.1,475.7c.1,0,.2,0,.4,0,.2,0,.3,0,.4,0l-.2,2.1c0,0-.2,0-.3,0-.1,0-.3,0-.4,0-.3,0-.6,0-.9.1-.3,0-.5.2-.7.4-.2.2-.4.4-.5.7-.1.3-.2.6-.2,1v4.3h-2.3v-8.4h1.7l.3,1.4h.1c.2-.3.4-.5.6-.8.2-.2.5-.4.8-.6.3-.1.7-.2,1-.2Z" fill="#333"/>
    <path d="M471.6,472.5v2.7c0,.3,0,.6,0,.9,0,.3,0,.5,0,.7h0c.2-.3.5-.6.9-.9s.9-.4,1.5-.4c.9,0,1.7.4,2.3,1.1.6.7.9,1.8.9,3.2s-.1,1.8-.4,2.4c-.3.6-.6,1.1-1.1,1.5-.5.3-1,.5-1.7.5s-1.1-.1-1.5-.3c-.4-.2-.6-.5-.9-.7h-.2l-.4.9h-1.7v-11.6h2.3ZM473.3,477.5c-.4,0-.7,0-1,.2-.2.2-.4.4-.5.7s-.2.7-.2,1.2v.2c0,.8.1,1.4.4,1.9.2.4.7.6,1.3.6s.8-.2,1.1-.7c.3-.4.4-1.1.4-1.9s-.1-1.4-.4-1.8-.7-.6-1.1-.6Z" fill="#333"/>
    <path d="M482.5,475.7c.8,0,1.4.1,2,.4s1,.7,1.3,1.3c.3.6.5,1.3.5,2.1v1.1h-5.4c0,.6.2,1.1.6,1.5.4.4.9.5,1.5.5s1,0,1.5-.2c.4-.1.9-.3,1.4-.5v1.8c-.4.2-.8.4-1.3.4-.5,0-1,.1-1.6.1s-1.6-.2-2.2-.5c-.6-.3-1.2-.8-1.5-1.4-.4-.6-.5-1.4-.5-2.4s.2-1.8.5-2.4c.3-.7.8-1.1,1.4-1.5.6-.3,1.3-.5,2.1-.5ZM482.5,477.3c-.4,0-.8.1-1.1.4-.3.3-.5.7-.5,1.3h3.2c0-.3,0-.6-.2-.9-.1-.3-.3-.5-.5-.6-.2-.2-.5-.2-.9-.2Z" fill="#333"/>
    <path d="M489.3,472.5c.3,0,.6,0,.9.2.2.2.4.5.4.9s-.1.7-.4.9c-.2.2-.5.2-.9.2s-.6,0-.9-.2-.4-.5-.4-.9.1-.7.4-.9.5-.2.9-.2ZM490.4,475.8v8.4h-2.3v-8.4h2.3Z" fill="#333"/>
    <path d="M496.3,482.5c.2,0,.5,0,.7,0,.2,0,.5-.1.7-.2v1.7c-.2.1-.5.2-.9.3-.4,0-.8.1-1.2.1s-.9,0-1.3-.2-.7-.4-.9-.8c-.2-.4-.3-1-.3-1.7v-4h-1.1v-1l1.3-.8.7-1.8h1.5v1.8h2.3v1.7h-2.3v4c0,.3,0,.6.3.7.2.2.4.2.7.2Z" fill="#333"/>
    <path d="M502.9,475.7c.8,0,1.4.1,2,.4s1,.7,1.3,1.3c.3.6.5,1.3.5,2.1v1.1h-5.4c0,.6.2,1.1.6,1.5.4.4.9.5,1.5.5s1,0,1.5-.2c.4-.1.9-.3,1.4-.5v1.8c-.4.2-.8.4-1.3.4-.5,0-1,.1-1.6.1s-1.6-.2-2.2-.5c-.6-.3-1.2-.8-1.5-1.4-.4-.6-.5-1.4-.5-2.4s.2-1.8.5-2.4c.3-.7.8-1.1,1.4-1.5.6-.3,1.3-.5,2.1-.5ZM502.9,477.3c-.4,0-.8.1-1.1.4-.3.3-.5.7-.5,1.3h3.2c0-.3,0-.6-.2-.9-.1-.3-.3-.5-.5-.6-.2-.2-.5-.2-.9-.2Z" fill="#333"/>
    <path d="M513.2,475.7c.9,0,1.6.2,2.2.7.5.5.8,1.3.8,2.3v5.5h-2.3v-4.9c0-.6-.1-1-.3-1.4-.2-.3-.6-.5-1-.5-.7,0-1.2.2-1.4.7-.3.5-.4,1.2-.4,2v3.9h-2.3v-8.4h1.7l.3,1.1h.1c.2-.3.4-.5.7-.7.3-.2.6-.3.9-.4.3,0,.7-.1,1-.1Z" fill="#333"/>
    <path d="M519.4,480.6v-.6c0-.3,0-.6.1-.9s.2-.5.5-.7c.2-.2.5-.5.8-.7.3-.2.6-.4.7-.6.2-.2.3-.3.4-.5,0-.2.1-.4.1-.6,0-.3-.1-.6-.4-.7s-.6-.3-1-.3-.9,0-1.3.2-.8.3-1.3.5l-.8-1.6c.5-.3,1-.5,1.6-.7.6-.2,1.2-.3,1.9-.3,1.1,0,1.9.3,2.5.8s.9,1.2.9,1.9,0,.8-.2,1.1c-.1.3-.3.6-.6.9s-.6.5-1,.8c-.3.2-.5.4-.7.6-.2.1-.3.3-.3.4,0,.1,0,.3,0,.5v.4h-2ZM519.2,483.1c0-.5.1-.8.4-1s.6-.3.9-.3.7,0,.9.3c.3.2.4.5.4,1s-.1.8-.4,1c-.3.2-.6.3-.9.3s-.7,0-.9-.3c-.3-.2-.4-.5-.4-1Z" fill="#333"/>
  </g>
</svg>