<?xml version="1.0" encoding="UTF-8"?>
<svg id="Ebene_1" xmlns="http://www.w3.org/2000/svg" version="1.1" viewBox="0 0 700 700">
  <g transform="rotate(45 350 350)">
    <path d="M351.1,35.9c-172.5,0-312.4,139.7-312.4,312s139.9,312,312.4,312,312.4-139.7,312.4-312S523.6,35.9,351.1,35.9ZM369.7,550.1c-125.4,0-227-101.5-227-226.7s101.6-226.7,227-226.7,227,101.5,227,226.7-101.6,226.7-227,226.7Z" fill="#cbe7f9"/>
    <path d="M421.8,61.4c-154.5-18.7-230.1,68.6-228.9,70.7,1.3,2.3,107.6-65.6,224.8-42.9,90.3,17.5,195.9,118.6,175.8,271.9-17.3,132-159.1,205.9-264.4,185.9-104.3-19.8-150.5-97.1-150.5-97.1l29.2-8.7-118.9-91.2-48.1,144.8,29.4-8.1s72.6,149.4,236.6,169.8c190.6,23.7,338.1-110.5,354.9-279.6,19-191.3-139.2-303.2-239.9-315.4Z" fill="#99d1f2"/>
  </g>
</svg>