<?xml version="1.0" encoding="UTF-8"?>
<svg id="Siezen_EN__x2B__Humorvoll" xmlns="http://www.w3.org/2000/svg" version="1.1" viewBox="0 0 320 320">
  <!-- Generator: Adobe Illustrator 30.5.1, SVG Export Plug-In . SVG Version: 2.1.4 Build 3)  -->
  <path d="M283.4,118.6h-92.1c-6.9,0-12.6,5.4-12.6,12v36.3c0,6.6,5.7,12,12.6,12h3.2l-5.6,12.2,20.8-12.2h73.7c6.9,0,12.6-5.4,12.6-12v-36.3c0-6.6-5.7-12-12.6-12Z" fill="#f1f2f2" stroke="#6c7478" stroke-miterlimit="10" stroke-width="2"/>
  <g>
    <rect x="46.6" y="119" width="109.7" height="83.3" rx="17.1" ry="17.1" fill="#f1f2f2" stroke="#6c7478" stroke-miterlimit="10" stroke-width="2"/>
    <path d="M46.6,139.1v39.7c-8.8-2.3-15.3-10.3-15.3-19.8,0-9.5,6.5-17.5,15.3-19.8Z" fill="#f1f2f2" stroke="#6c7478" stroke-miterlimit="10" stroke-width="2"/>
    <path d="M156.4,139.1v39.7c8.8-2.3,15.3-10.3,15.3-19.8s-6.5-17.5-15.3-19.8Z" fill="#f1f2f2" stroke="#6c7478" stroke-miterlimit="10" stroke-width="2"/>
    <rect x="81.2" y="202.5" width="41.9" height="15.3" rx="6.1" ry="6.1" fill="#f1f2f2" stroke="#6c7478" stroke-miterlimit="10" stroke-width="2"/>
    <rect x="97.9" y="111.4" width="7.1" height="7.6" fill="#f1f2f2" stroke="#6c7478" stroke-miterlimit="10" stroke-width="2"/>
    <circle cx="101.5" cy="106.1" r="6.8" fill="#f1f2f2" stroke="#6c7478" stroke-miterlimit="10" stroke-width="2"/>
    <path d="M56.6,237.6c0-10.9,8.8-19.7,19.7-19.7h52.6c10.9,0,19.7,8.8,19.7,19.7" fill="#f1f2f2" stroke="#6c7478" stroke-miterlimit="10" stroke-width="2"/>
    <g>
      <path d="M130.9,164.8s-1.8,26.3-28.4,26.3c-28.2,0-28.5-26.1-28.5-26.1l56.8-.2Z" fill="none" stroke="#6c7478" stroke-linecap="round" stroke-miterlimit="10" stroke-width="3"/>
      <line x1="67.8" y1="150" x2="84.2" y2="146.8" fill="none" stroke="#6c7478" stroke-linecap="round" stroke-miterlimit="10" stroke-width="3"/>
      <line x1="118.7" y1="146.8" x2="134.9" y2="150" fill="none" stroke="#6c7478" stroke-linecap="round" stroke-miterlimit="10" stroke-width="3"/>
    </g>
  </g>
  <g>
    <path d="M209.3,141.7l-3.8,14.5h-2.6l-2.4-8.7c0-.2-.1-.5-.2-.8,0-.3-.1-.6-.2-.9s-.1-.6-.2-.8c0-.3,0-.4-.1-.6,0,.1,0,.3,0,.6s-.1.5-.2.8c0,.3-.1.6-.2.9,0,.3-.1.6-.2.8l-2.4,8.7h-2.6l-3.8-14.5h2.4l2.1,8.5c0,.3.1.6.2.9s.1.6.2.9c0,.3.1.6.2.9,0,.3,0,.6.1.8,0-.3,0-.5.1-.8,0-.3.1-.6.2-.9s.1-.6.2-.9c0-.3.1-.6.2-.8l2.4-8.5h2.3l2.4,8.6c0,.2.1.5.2.8s.1.6.2.9c0,.3.1.6.2.9,0,.3,0,.6.1.8,0-.3.1-.7.2-1.1,0-.4.2-.8.2-1.3,0-.4.2-.8.3-1.2l2.1-8.5h2.4Z" fill="#6c7478"/>
    <path d="M215.5,145c1,0,1.8.2,2.5.6.7.4,1.2,1,1.6,1.7.4.7.6,1.6.6,2.7v1.2h-7.3c0,1.1.3,1.9.9,2.5s1.3.9,2.3.9,1.3,0,1.9-.2c.6-.1,1.1-.3,1.7-.6v1.9c-.5.3-1.1.4-1.7.6-.6.1-1.2.2-2,.2s-2-.2-2.8-.6c-.8-.4-1.5-1-1.9-1.9-.5-.8-.7-1.9-.7-3.1s.2-2.3.6-3.1c.4-.9,1-1.5,1.8-2,.8-.4,1.6-.7,2.6-.7ZM215.5,146.7c-.7,0-1.3.2-1.8.7-.5.5-.7,1.2-.8,2.1h5c0-.5,0-1-.3-1.5s-.4-.8-.8-1-.8-.4-1.3-.4Z" fill="#6c7478"/>
    <path d="M225.1,156.1h-2.3v-15.4h2.3v15.4Z" fill="#6c7478"/>
    <path d="M232.9,156.3c-1,0-1.9-.2-2.7-.6-.8-.4-1.3-1-1.8-1.8-.4-.8-.6-1.9-.6-3.2s.2-2.4.7-3.3c.4-.8,1.1-1.5,1.9-1.9.8-.4,1.7-.6,2.7-.6s1.2,0,1.8.2,1,.3,1.3.5l-.7,1.9c-.4-.2-.8-.3-1.2-.4-.4-.1-.8-.2-1.2-.2-.6,0-1.2.1-1.6.4-.4.3-.7.7-.9,1.3-.2.6-.3,1.3-.3,2.1s.1,1.5.3,2,.5,1,.9,1.2c.4.3.9.4,1.5.4s1.1,0,1.6-.2c.5-.1.9-.3,1.3-.6v2c-.4.2-.9.4-1.3.5s-1.1.2-1.8.2Z" fill="#6c7478"/>
    <path d="M248.2,150.6c0,.9-.1,1.7-.4,2.4-.2.7-.6,1.3-1,1.8-.5.5-1,.9-1.6,1.1-.6.3-1.4.4-2.2.4s-1.4-.1-2.1-.4c-.6-.3-1.2-.6-1.6-1.1-.5-.5-.8-1.1-1.1-1.8-.3-.7-.4-1.5-.4-2.4s.2-2.2.6-3.1c.4-.8,1-1.5,1.8-1.9.8-.4,1.7-.7,2.8-.7s1.9.2,2.7.7c.8.4,1.4,1.1,1.8,1.9.4.8.7,1.9.7,3.1ZM240.2,150.6c0,.8,0,1.5.3,2s.5,1,.9,1.3c.4.3.9.4,1.6.4s1.2-.1,1.6-.4c.4-.3.7-.7.9-1.3.2-.6.3-1.2.3-2s0-1.5-.3-2c-.2-.6-.5-1-.9-1.3-.4-.3-.9-.4-1.6-.4-1,0-1.7.3-2.1,1-.4.6-.7,1.6-.7,2.8Z" fill="#6c7478"/>
    <path d="M263.2,145c1.2,0,2.2.3,2.8.9.6.6.9,1.6.9,3v7.2h-2.3v-6.7c0-.8-.2-1.5-.5-1.9-.3-.4-.8-.6-1.5-.6s-1.6.3-2,.9c-.4.6-.6,1.4-.6,2.6v5.8h-2.3v-6.7c0-.6,0-1-.2-1.4-.1-.4-.4-.7-.6-.8s-.7-.3-1.1-.3c-.6,0-1.1.1-1.5.4s-.7.7-.8,1.3c-.2.6-.2,1.3-.2,2.1v5.5h-2.3v-10.9h1.8l.3,1.5h.1c.2-.4.5-.7.8-.9.3-.2.7-.4,1.1-.6.4-.1.8-.2,1.3-.2.8,0,1.5.1,2.1.4.6.3,1,.7,1.3,1.3h.2c.3-.6.8-1,1.4-1.3.6-.3,1.3-.4,1.9-.4Z" fill="#6c7478"/>
    <path d="M274.5,145c1,0,1.8.2,2.5.6.7.4,1.2,1,1.6,1.7.4.7.6,1.6.6,2.7v1.2h-7.3c0,1.1.3,1.9.9,2.5s1.3.9,2.3.9,1.3,0,1.9-.2c.6-.1,1.1-.3,1.7-.6v1.9c-.5.3-1.1.4-1.7.6-.6.1-1.2.2-2,.2s-2-.2-2.8-.6c-.8-.4-1.5-1-1.9-1.9-.5-.8-.7-1.9-.7-3.1s.2-2.3.6-3.1c.4-.9,1-1.5,1.8-2,.8-.4,1.6-.7,2.6-.7ZM274.5,146.7c-.7,0-1.3.2-1.8.7-.5.5-.7,1.2-.8,2.1h5c0-.5,0-1-.3-1.5s-.4-.8-.8-1-.8-.4-1.3-.4Z" fill="#6c7478"/>
    <path d="M281.5,154.9c0-.5.1-.9.4-1.1.3-.2.6-.3,1-.3s.7.1,1,.3c.3.2.4.6.4,1.1s-.1.9-.4,1.1-.6.4-1,.4-.8-.1-1-.4-.4-.6-.4-1.1ZM283.9,151.7h-1.8l-.5-10h2.7l-.5,10Z" fill="#6c7478"/>
  </g>
</svg>